<svg id="svg" version="1.1" xmlns="http://www.w3.org/2000/svg" xmlns:xlink="http://www.w3.org/1999/xlink" width="400" height="400" viewBox="0, 0, 400,400"><g id="svgg"><path id="path0" d="M343.000 107.982 C 342.560 108.163,339.770 109.084,336.800 110.030 C 331.557 111.699,330.166 112.300,330.581 112.714 C 330.691 112.824,331.010 112.742,331.290 112.531 C 331.571 112.321,333.150 111.737,334.800 111.233 C 336.450 110.730,338.113 110.156,338.495 109.959 C 338.877 109.762,339.541 109.600,339.971 109.600 C 340.401 109.600,340.864 109.420,341.000 109.200 C 341.136 108.980,341.732 108.794,342.324 108.787 C 342.916 108.780,343.749 108.510,344.176 108.187 C 345.043 107.532,344.380 107.416,343.000 107.982 M48.934 234.165 C 47.150 235.576,45.569 236.926,45.421 237.165 C 45.274 237.404,44.794 237.600,44.356 237.600 C 43.644 237.600,34.800 245.882,34.800 246.549 C 34.800 246.687,34.080 247.541,33.200 248.448 C 32.320 249.355,31.600 250.305,31.600 250.560 C 31.600 250.815,31.250 251.276,30.821 251.585 C 30.393 251.893,30.127 252.281,30.229 252.447 C 30.331 252.613,29.962 253.202,29.408 253.756 C 28.853 254.310,28.400 254.959,28.400 255.199 C 28.400 255.438,28.040 256.020,27.600 256.492 C 27.160 256.964,26.800 257.587,26.800 257.875 C 26.800 258.164,26.647 258.400,26.460 258.400 C 26.273 258.400,25.787 259.210,25.378 260.200 C 24.970 261.190,24.493 262.000,24.318 262.000 C 24.143 262.000,24.000 262.360,24.000 262.800 C 24.000 263.240,23.820 263.600,23.600 263.600 C 23.380 263.600,23.200 263.960,23.200 264.400 C 23.200 264.840,23.020 265.200,22.800 265.200 C 22.580 265.200,22.400 265.560,22.400 266.000 C 22.400 266.440,22.220 266.800,22.000 266.800 C 21.780 266.800,21.600 267.160,21.600 267.600 C 21.600 268.040,21.420 268.400,21.200 268.400 C 20.980 268.400,20.800 268.760,20.800 269.200 C 20.800 269.640,20.620 270.000,20.400 270.000 C 20.180 270.000,20.000 270.540,20.000 271.200 C 20.000 271.860,19.820 272.400,19.600 272.400 C 19.380 272.400,19.200 272.760,19.200 273.200 C 19.200 273.640,19.020 274.000,18.800 274.000 C 18.580 274.000,18.400 274.540,18.400 275.200 C 18.400 275.860,18.220 276.400,18.000 276.400 C 17.780 276.400,17.600 276.839,17.600 277.376 C 17.600 277.913,17.420 278.464,17.200 278.600 C 16.980 278.736,16.800 279.467,16.800 280.224 C 16.800 280.981,16.620 281.600,16.400 281.600 C 16.180 281.600,16.000 282.219,16.000 282.976 C 16.000 283.733,15.820 284.464,15.600 284.600 C 15.380 284.736,15.200 285.557,15.200 286.424 C 15.200 287.291,15.020 288.000,14.800 288.000 C 14.578 288.000,14.400 289.067,14.400 290.400 C 14.400 291.733,14.222 292.800,14.000 292.800 C 13.763 292.800,13.600 294.259,13.600 296.376 C 13.600 298.343,13.420 300.064,13.200 300.200 C 12.960 300.349,12.800 303.071,12.800 307.024 C 12.800 311.141,12.950 313.600,13.200 313.600 C 13.436 313.600,13.600 315.040,13.600 317.120 C 13.600 319.056,13.763 320.811,13.961 321.020 C 14.296 321.372,14.433 322.164,15.049 327.300 C 15.175 328.345,15.440 329.200,15.639 329.200 C 15.837 329.200,16.000 329.830,16.000 330.600 C 16.000 331.370,16.180 332.000,16.400 332.000 C 16.620 332.000,16.800 332.630,16.800 333.400 C 16.800 334.170,16.980 334.800,17.200 334.800 C 17.420 334.800,17.600 335.340,17.600 336.000 C 17.600 336.660,17.780 337.200,18.000 337.200 C 18.220 337.200,18.400 337.639,18.400 338.176 C 18.400 338.713,18.580 339.264,18.800 339.400 C 19.020 339.536,19.200 340.087,19.200 340.624 C 19.200 341.161,19.380 341.600,19.600 341.600 C 19.820 341.600,20.000 341.960,20.000 342.400 C 20.000 342.840,20.180 343.200,20.400 343.200 C 20.620 343.200,20.800 343.549,20.800 343.976 C 20.800 344.403,20.980 344.864,21.200 345.000 C 21.420 345.136,21.600 345.687,21.600 346.224 C 21.600 346.761,21.780 347.200,22.000 347.200 C 22.220 347.200,22.400 347.560,22.400 348.000 C 22.400 348.440,22.580 348.800,22.800 348.800 C 23.020 348.800,23.200 349.160,23.200 349.600 C 23.200 350.040,23.380 350.400,23.600 350.400 C 23.820 350.400,24.000 350.771,24.000 351.224 C 24.000 351.677,24.180 351.936,24.400 351.800 C 24.620 351.664,24.814 351.878,24.831 352.276 C 24.849 352.674,25.390 353.810,26.034 354.800 C 26.678 355.790,27.315 356.915,27.449 357.300 C 27.584 357.685,27.852 358.000,28.047 358.000 C 28.241 358.000,28.400 358.225,28.401 358.500 C 28.401 358.775,28.941 359.630,29.600 360.400 C 30.259 361.170,30.799 361.937,30.799 362.104 C 30.800 362.271,31.340 362.972,32.000 363.663 C 32.660 364.354,33.200 365.086,33.200 365.291 C 33.200 365.495,33.920 366.354,34.800 367.200 C 35.680 368.046,36.400 368.942,36.400 369.192 C 36.400 369.442,36.580 369.536,36.800 369.400 C 37.020 369.264,37.200 369.409,37.200 369.722 C 37.200 370.035,38.925 371.890,41.032 373.845 C 43.140 375.800,45.585 378.075,46.465 378.900 C 47.345 379.725,48.225 380.400,48.419 380.400 C 48.614 380.400,49.403 381.030,50.173 381.800 C 50.943 382.570,51.810 383.200,52.098 383.200 C 52.387 383.200,52.883 383.560,53.200 384.000 C 53.517 384.440,54.014 384.800,54.305 384.800 C 54.596 384.800,55.220 385.160,55.692 385.600 C 56.164 386.040,56.787 386.400,57.075 386.400 C 57.364 386.400,57.600 386.558,57.600 386.751 C 57.600 386.945,58.140 387.327,58.800 387.600 C 59.460 387.873,60.000 388.255,60.000 388.449 C 60.000 388.642,60.345 388.800,60.767 388.800 C 61.188 388.800,61.593 388.935,61.667 389.100 C 61.879 389.578,66.129 391.613,66.900 391.606 C 67.285 391.603,67.600 391.780,67.600 392.000 C 67.600 392.220,67.960 392.400,68.400 392.400 C 68.840 392.400,69.200 392.580,69.200 392.800 C 69.200 393.020,69.560 393.200,70.000 393.200 C 70.440 393.200,70.800 393.380,70.800 393.600 C 70.800 393.820,71.340 394.000,72.000 394.000 C 72.660 394.000,73.200 394.180,73.200 394.400 C 73.200 394.620,73.560 394.800,74.000 394.800 C 74.440 394.800,74.800 394.980,74.800 395.200 C 74.800 395.420,75.340 395.600,76.000 395.600 C 76.660 395.600,77.200 395.780,77.200 396.000 C 77.200 396.220,77.729 396.400,78.376 396.400 C 79.023 396.400,79.664 396.580,79.800 396.800 C 79.936 397.020,80.677 397.200,81.447 397.200 C 82.279 397.200,82.747 397.362,82.600 397.600 C 82.451 397.841,82.988 398.000,83.953 398.000 C 84.833 398.000,85.664 398.180,85.800 398.400 C 85.936 398.620,86.832 398.800,87.790 398.800 C 88.829 398.800,89.601 399.002,89.700 399.300 C 89.919 399.957,123.068 400.036,123.514 399.380 C 123.672 399.150,124.610 398.910,125.600 398.849 C 126.590 398.787,127.571 398.571,127.780 398.368 C 127.989 398.166,128.833 398.000,129.656 398.000 C 130.479 398.000,131.264 397.820,131.400 397.600 C 131.536 397.380,132.177 397.200,132.824 397.200 C 133.471 397.200,134.000 397.020,134.000 396.800 C 134.000 396.580,134.540 396.400,135.200 396.400 C 135.860 396.400,136.400 396.220,136.400 396.000 C 136.400 395.780,136.839 395.600,137.376 395.600 C 137.913 395.600,138.464 395.420,138.600 395.200 C 138.736 394.980,139.287 394.800,139.824 394.800 C 140.361 394.800,140.800 394.620,140.800 394.400 C 140.800 394.180,141.155 394.000,141.588 394.000 C 142.021 394.000,143.017 393.640,143.800 393.200 C 144.583 392.760,145.489 392.400,145.812 392.400 C 146.135 392.400,146.400 392.220,146.400 392.000 C 146.400 391.780,146.679 391.600,147.020 391.600 C 147.361 391.600,148.216 391.293,148.920 390.917 C 149.624 390.541,150.290 390.202,150.400 390.163 C 150.510 390.124,151.005 389.961,151.500 389.800 C 151.995 389.638,152.400 389.381,152.400 389.228 C 152.400 389.075,153.030 388.702,153.800 388.400 C 154.570 388.098,155.200 387.704,155.200 387.525 C 155.200 387.346,155.436 387.200,155.725 387.200 C 156.013 387.200,156.636 386.840,157.108 386.400 C 157.580 385.960,158.154 385.600,158.383 385.600 C 158.612 385.600,158.800 385.450,158.800 385.268 C 158.800 385.085,159.295 384.680,159.900 384.368 C 160.505 384.055,161.349 383.485,161.775 383.100 C 162.202 382.715,162.715 382.400,162.915 382.400 C 163.115 382.400,163.783 381.860,164.400 381.200 C 165.017 380.540,165.819 380.000,166.184 380.000 C 166.549 380.000,166.736 379.820,166.600 379.600 C 166.464 379.380,166.560 379.200,166.812 379.200 C 167.415 379.200,180.000 366.591,180.000 365.986 C 180.000 365.730,180.531 365.025,181.181 364.418 C 181.830 363.811,182.415 363.066,182.481 362.761 C 182.546 362.457,183.095 361.729,183.700 361.143 C 184.305 360.558,184.800 359.857,184.800 359.586 C 184.800 359.316,185.116 358.803,185.503 358.447 C 185.889 358.091,186.469 357.260,186.791 356.600 C 187.112 355.940,187.885 354.635,188.507 353.700 C 189.129 352.765,189.512 352.000,189.357 352.000 C 189.203 352.000,189.336 351.685,189.654 351.300 C 190.403 350.392,191.600 347.739,191.600 346.986 C 191.600 346.664,191.780 346.400,192.000 346.400 C 192.220 346.400,192.400 346.135,192.400 345.812 C 192.400 345.489,192.760 344.583,193.200 343.800 C 193.640 343.017,194.000 342.021,194.000 341.588 C 194.000 341.155,194.180 340.800,194.400 340.800 C 194.620 340.800,194.800 340.249,194.800 339.576 C 194.800 338.863,194.967 338.456,195.200 338.600 C 195.439 338.747,195.600 338.263,195.600 337.400 C 195.600 336.537,195.761 336.053,196.000 336.200 C 196.233 336.344,196.400 335.937,196.400 335.224 C 196.400 334.551,196.580 334.000,196.800 334.000 C 197.020 334.000,197.200 333.471,197.200 332.824 C 197.200 332.177,197.380 331.536,197.600 331.400 C 197.820 331.264,198.000 330.479,198.000 329.656 C 198.000 328.833,198.170 327.989,198.378 327.780 C 198.585 327.571,198.799 326.545,198.852 325.500 C 198.906 324.455,199.080 323.600,199.239 323.600 C 200.053 323.600,200.783 297.127,200.022 295.213 C 199.801 294.656,199.585 293.165,199.542 291.900 C 199.498 290.635,199.314 289.600,199.132 289.600 C 198.949 289.600,198.800 288.790,198.800 287.800 C 198.800 286.810,198.620 286.000,198.400 286.000 C 198.180 286.000,198.000 285.190,198.000 284.200 C 198.000 283.210,197.820 282.400,197.600 282.400 C 197.380 282.400,197.200 281.871,197.200 281.224 C 197.200 280.577,197.020 279.936,196.800 279.800 C 196.580 279.664,196.400 279.023,196.400 278.376 C 196.400 277.729,196.220 277.200,196.000 277.200 C 195.780 277.200,195.600 276.649,195.600 275.976 C 195.600 275.263,195.433 274.856,195.200 275.000 C 194.980 275.136,194.800 274.869,194.800 274.407 C 194.800 273.945,194.440 273.180,194.000 272.708 L 193.200 271.849 193.200 275.835 C 193.200 288.300,189.002 296.380,180.200 300.860 C 174.202 303.913,165.036 304.420,160.305 301.961 C 159.923 301.762,159.353 301.600,159.039 301.600 C 158.724 301.600,157.125 300.702,155.485 299.606 C 152.814 297.819,151.388 296.489,149.079 293.634 C 148.067 292.382,146.000 288.231,146.000 287.451 C 146.000 287.093,145.848 286.800,145.661 286.800 C 145.475 286.800,145.211 288.825,145.074 291.300 C 144.671 298.596,143.110 304.009,140.524 307.083 C 140.126 307.556,139.297 308.586,138.683 309.372 C 127.895 323.166,103.769 318.325,97.715 301.152 L 96.675 298.200 96.392 272.186 C 96.149 249.777,96.024 246.008,95.486 244.986 C 94.517 243.142,92.733 241.936,90.200 241.412 C 89.540 241.276,88.325 240.992,87.500 240.782 C 86.675 240.572,85.280 240.220,84.400 240.000 C 83.520 239.780,82.125 239.428,81.300 239.218 C 80.475 239.008,79.260 238.729,78.600 238.599 C 77.381 238.358,75.881 237.997,73.000 237.252 C 72.120 237.024,69.780 236.461,67.800 236.000 C 59.966 234.176,57.074 233.345,55.116 232.352 C 52.915 231.237,52.475 231.366,48.934 234.165 M330.400 261.600 C 330.070 261.813,328.855 261.991,327.700 261.994 C 326.545 261.997,325.600 262.161,325.600 262.358 C 325.600 262.555,324.880 262.825,324.000 262.958 C 323.120 263.091,321.680 263.309,320.800 263.442 C 319.920 263.575,319.200 263.845,319.200 264.042 C 319.200 264.239,318.660 264.400,318.000 264.400 C 317.340 264.400,316.800 264.580,316.800 264.800 C 316.800 265.020,316.375 265.200,315.855 265.200 C 315.335 265.200,314.470 265.640,313.932 266.177 C 313.395 266.714,311.525 267.910,309.778 268.835 C 303.534 272.138,298.860 275.610,293.267 281.100 C 291.642 282.695,290.062 284.000,289.756 284.000 C 289.450 284.000,289.200 284.174,289.200 284.387 C 289.200 284.599,288.570 285.403,287.800 286.173 C 287.030 286.943,286.400 287.810,286.400 288.098 C 286.400 288.387,286.040 288.883,285.600 289.200 C 285.160 289.517,284.800 290.097,284.800 290.488 C 284.800 290.880,284.620 291.200,284.400 291.200 C 284.180 291.200,284.000 291.470,284.000 291.800 C 284.000 292.130,283.820 292.400,283.600 292.400 C 283.380 292.400,283.200 292.655,283.200 292.967 C 283.200 293.278,283.056 293.593,282.880 293.667 C 282.433 293.853,280.000 299.013,280.000 299.775 C 280.000 300.119,279.820 300.400,279.600 300.400 C 279.380 300.400,279.200 300.850,279.200 301.400 C 279.200 301.950,279.020 302.400,278.800 302.400 C 278.580 302.400,278.400 302.839,278.400 303.376 C 278.400 303.913,278.220 304.464,278.000 304.600 C 277.780 304.736,277.600 305.366,277.600 306.000 C 277.600 306.634,277.420 307.264,277.200 307.400 C 276.980 307.536,276.800 308.321,276.800 309.144 C 276.800 309.967,276.642 310.811,276.448 311.020 C 275.455 312.094,274.920 330.816,275.789 334.081 C 275.947 334.675,276.149 335.665,276.236 336.281 C 276.324 336.896,276.505 338.165,276.640 339.100 C 276.774 340.035,277.045 340.800,277.242 340.800 C 277.439 340.800,277.600 341.171,277.600 341.625 C 277.600 342.450,279.223 347.623,279.600 348.000 C 280.073 348.473,280.800 350.037,280.800 350.581 C 280.800 350.906,281.340 352.024,282.000 353.064 C 282.660 354.105,283.200 355.191,283.200 355.478 C 283.200 355.765,283.380 356.000,283.600 356.000 C 283.820 356.000,284.000 356.270,284.000 356.600 C 284.000 356.930,284.180 357.200,284.400 357.200 C 284.620 357.200,284.800 357.470,284.800 357.800 C 284.800 358.130,284.980 358.400,285.200 358.400 C 285.420 358.400,285.600 358.670,285.600 359.000 C 285.600 359.330,285.750 359.600,285.932 359.600 C 286.115 359.600,286.519 360.095,286.830 360.700 C 287.140 361.305,287.674 362.070,288.016 362.400 C 288.358 362.730,289.075 363.630,289.610 364.400 C 290.657 365.908,296.022 371.343,297.623 372.517 C 298.160 372.911,299.140 373.676,299.800 374.217 C 300.460 374.757,301.185 375.199,301.412 375.200 C 301.638 375.200,302.083 375.560,302.400 376.000 C 302.717 376.440,303.214 376.800,303.505 376.800 C 303.796 376.800,304.420 377.160,304.892 377.600 C 305.364 378.040,305.987 378.400,306.275 378.400 C 306.564 378.400,306.800 378.580,306.800 378.800 C 306.800 379.020,307.145 379.200,307.567 379.200 C 307.988 379.200,308.393 379.335,308.467 379.500 C 308.687 379.995,313.654 382.400,314.456 382.400 C 314.865 382.400,315.200 382.580,315.200 382.800 C 315.200 383.020,315.639 383.200,316.176 383.200 C 316.713 383.200,317.264 383.380,317.400 383.600 C 317.536 383.820,318.166 384.000,318.800 384.000 C 319.434 384.000,320.064 384.180,320.200 384.400 C 320.336 384.620,320.876 384.800,321.400 384.800 C 321.924 384.800,322.464 384.980,322.600 385.200 C 322.736 385.420,323.632 385.600,324.590 385.600 C 325.549 385.600,326.393 385.770,326.467 385.978 C 326.540 386.187,327.995 386.393,329.700 386.437 C 331.405 386.481,332.800 386.671,332.800 386.858 C 332.800 387.347,343.097 387.290,343.400 386.800 C 343.536 386.580,344.882 386.400,346.390 386.400 C 347.899 386.400,349.193 386.230,349.267 386.021 C 349.340 385.813,350.255 385.600,351.300 385.547 C 352.345 385.494,353.200 385.304,353.200 385.125 C 353.200 384.946,353.819 384.800,354.576 384.800 C 355.333 384.800,356.064 384.620,356.200 384.400 C 356.336 384.180,356.876 384.000,357.400 384.000 C 357.924 384.000,358.464 383.820,358.600 383.600 C 358.736 383.380,359.197 383.200,359.624 383.200 C 360.051 383.200,360.400 383.020,360.400 382.800 C 360.400 382.580,360.940 382.400,361.600 382.400 C 362.260 382.400,362.800 382.220,362.800 382.000 C 362.800 381.780,363.160 381.600,363.600 381.600 C 364.040 381.600,364.400 381.420,364.400 381.200 C 364.400 380.980,364.760 380.800,365.200 380.800 C 365.640 380.800,366.000 380.620,366.000 380.400 C 366.000 380.180,366.360 380.000,366.800 380.000 C 367.240 380.000,367.603 379.865,367.606 379.700 C 367.610 379.535,368.510 378.960,369.606 378.421 C 370.703 377.883,371.600 377.298,371.600 377.121 C 371.600 376.945,371.870 376.800,372.200 376.800 C 372.530 376.800,372.800 376.620,372.800 376.400 C 372.800 376.180,373.070 376.000,373.400 376.000 C 373.730 376.000,374.000 375.820,374.000 375.600 C 374.000 375.380,374.188 375.200,374.417 375.200 C 374.646 375.200,375.051 375.017,375.317 374.793 C 377.146 373.250,377.761 372.800,378.038 372.800 C 378.514 372.800,386.875 364.342,386.636 364.102 C 386.522 363.988,386.932 363.423,387.548 362.847 C 388.163 362.271,388.901 361.361,389.188 360.825 C 389.474 360.289,389.870 359.659,390.068 359.425 C 390.709 358.666,393.200 354.313,393.200 353.952 C 393.200 353.758,393.380 353.600,393.600 353.600 C 393.820 353.600,394.000 353.240,394.000 352.800 C 394.000 352.360,394.180 352.000,394.400 352.000 C 394.620 352.000,394.800 351.640,394.800 351.200 C 394.800 350.760,394.980 350.400,395.200 350.400 C 395.420 350.400,395.600 349.860,395.600 349.200 C 395.600 348.540,395.780 348.000,396.000 348.000 C 396.220 348.000,396.400 347.640,396.400 347.200 C 396.400 346.760,396.580 346.400,396.800 346.400 C 397.020 346.400,397.200 345.860,397.200 345.200 C 397.200 344.540,397.380 344.000,397.600 344.000 C 397.820 344.000,398.000 343.370,398.000 342.600 C 398.000 341.830,398.180 341.200,398.400 341.200 C 398.620 341.200,398.800 340.585,398.800 339.833 C 398.800 339.082,399.025 338.392,399.300 338.300 C 399.687 338.171,399.800 334.991,399.800 324.200 C 399.800 313.409,399.687 310.229,399.300 310.100 C 399.013 310.004,398.800 309.264,398.800 308.367 C 398.800 307.505,398.620 306.800,398.400 306.800 C 398.180 306.800,398.000 306.260,398.000 305.600 C 398.000 304.940,397.820 304.400,397.600 304.400 C 397.380 304.400,397.200 303.860,397.200 303.200 C 397.200 302.540,397.053 302.000,396.872 302.000 C 396.692 302.000,396.300 301.100,396.000 300.000 C 395.700 298.900,395.308 298.000,395.128 298.000 C 394.947 298.000,394.800 297.640,394.800 297.200 C 394.800 296.760,394.620 296.400,394.400 296.400 C 394.180 296.400,394.000 296.029,394.000 295.576 C 394.000 295.123,393.820 294.864,393.600 295.000 C 393.380 295.136,393.200 294.964,393.200 294.618 C 393.200 293.943,392.495 292.554,391.726 291.713 C 391.466 291.428,391.138 290.836,390.999 290.398 C 390.860 289.959,390.568 289.600,390.349 289.600 C 390.131 289.600,390.064 289.420,390.200 289.200 C 390.336 288.980,390.257 288.800,390.024 288.800 C 389.791 288.800,389.600 288.565,389.600 288.278 C 389.600 287.991,388.970 287.069,388.200 286.228 C 387.430 285.387,386.800 284.542,386.800 284.350 C 386.800 284.157,386.501 284.000,386.135 284.000 C 385.769 284.000,383.564 282.147,381.235 279.882 C 376.713 275.485,373.606 273.106,368.800 270.359 C 367.150 269.416,365.710 268.535,365.600 268.401 C 365.490 268.268,364.725 267.844,363.900 267.460 C 363.075 267.077,362.400 266.591,362.400 266.381 C 362.400 266.172,362.130 266.000,361.800 266.000 C 361.470 266.000,361.200 265.820,361.200 265.600 C 361.200 265.380,360.660 265.200,360.000 265.200 C 359.340 265.200,358.800 265.020,358.800 264.800 C 358.800 264.580,358.361 264.400,357.824 264.400 C 357.287 264.400,356.736 264.220,356.600 264.000 C 356.464 263.780,355.823 263.600,355.176 263.600 C 354.529 263.600,354.000 263.420,354.000 263.200 C 354.000 262.980,353.190 262.800,352.200 262.800 C 351.210 262.800,350.400 262.620,350.400 262.400 C 350.400 262.174,349.267 262.000,347.800 262.000 C 346.333 262.000,345.200 261.826,345.200 261.600 C 345.200 261.075,331.213 261.075,330.400 261.600 " stroke="none" fill="#94a3a3" fill-rule="evenodd"></path><path id="path1" d="M96.700 0.272 C 95.435 0.364,94.400 0.611,94.400 0.820 C 94.400 1.029,93.806 1.200,93.080 1.200 C 92.354 1.200,91.589 1.371,91.379 1.581 C 91.170 1.790,90.335 2.006,89.525 2.061 C 88.715 2.115,88.141 2.304,88.249 2.480 C 88.358 2.656,87.997 2.800,87.447 2.800 C 86.897 2.800,86.336 2.980,86.200 3.200 C 86.064 3.420,85.323 3.600,84.553 3.600 C 83.721 3.600,83.253 3.762,83.400 4.000 C 83.540 4.227,83.204 4.400,82.624 4.400 C 82.061 4.400,81.600 4.580,81.600 4.800 C 81.600 5.020,81.285 5.201,80.900 5.201 C 80.515 5.202,79.611 5.562,78.890 6.001 C 78.170 6.441,77.214 6.800,76.767 6.800 C 76.319 6.800,76.064 6.980,76.200 7.200 C 76.336 7.420,76.077 7.600,75.624 7.600 C 75.171 7.600,74.800 7.759,74.800 7.953 C 74.800 8.297,73.304 8.930,72.700 8.843 C 72.535 8.819,72.400 8.991,72.400 9.224 C 72.400 9.457,72.243 9.550,72.052 9.432 C 71.860 9.313,71.297 9.569,70.800 10.000 C 70.303 10.431,69.773 10.707,69.621 10.613 C 69.470 10.519,69.093 10.793,68.785 11.221 C 68.476 11.650,68.027 12.000,67.787 12.000 C 67.547 12.000,66.969 12.356,66.501 12.791 C 66.034 13.227,65.442 13.632,65.186 13.691 C 64.930 13.751,64.063 14.383,63.260 15.096 C 60.635 17.427,60.405 17.600,59.933 17.600 C 59.677 17.600,59.575 17.708,59.707 17.841 C 59.840 17.973,57.935 20.128,55.474 22.629 C 50.523 27.661,50.214 28.004,48.814 30.005 C 48.277 30.772,47.514 31.691,47.119 32.047 C 46.724 32.403,46.400 32.978,46.400 33.324 C 46.400 33.671,46.085 34.190,45.700 34.477 C 45.315 34.765,44.941 35.270,44.868 35.600 C 44.796 35.930,44.503 36.470,44.218 36.800 C 43.932 37.130,43.460 38.075,43.169 38.900 C 42.878 39.725,42.515 40.400,42.364 40.400 C 42.212 40.400,41.853 41.198,41.564 42.174 C 41.276 43.150,40.896 43.860,40.720 43.751 C 40.544 43.642,40.400 44.024,40.400 44.600 C 40.400 45.196,40.228 45.541,40.000 45.400 C 39.774 45.260,39.600 45.588,39.600 46.153 C 39.600 46.703,39.420 47.264,39.200 47.400 C 38.980 47.536,38.800 48.097,38.800 48.647 C 38.800 49.212,38.626 49.540,38.400 49.400 C 38.174 49.260,38.000 49.588,38.000 50.153 C 38.000 50.703,37.820 51.264,37.600 51.400 C 37.380 51.536,37.200 52.267,37.200 53.024 C 37.200 53.781,37.020 54.400,36.800 54.400 C 36.580 54.400,36.400 54.940,36.400 55.600 C 36.400 56.290,36.188 56.803,35.900 56.806 C 35.567 56.810,35.600 56.942,36.000 57.200 C 36.400 57.458,36.433 57.590,36.100 57.594 C 35.798 57.598,35.600 58.145,35.600 58.976 C 35.600 59.733,35.420 60.464,35.200 60.600 C 34.980 60.736,34.800 61.906,34.800 63.200 C 34.800 64.494,34.620 65.664,34.400 65.800 C 34.161 65.948,34.000 68.537,34.000 72.224 C 34.000 78.133,33.965 78.400,33.200 78.400 C 32.760 78.400,32.400 78.580,32.400 78.800 C 32.400 79.020,31.860 79.200,31.200 79.200 C 30.540 79.200,30.000 79.380,30.000 79.600 C 30.000 79.820,29.460 80.000,28.800 80.000 C 28.140 80.000,27.600 80.180,27.600 80.400 C 27.600 80.620,27.309 80.800,26.953 80.800 C 26.236 80.800,21.399 82.289,20.305 82.846 C 19.923 83.041,19.158 83.200,18.605 83.200 C 18.052 83.200,17.600 83.380,17.600 83.600 C 17.600 83.820,17.060 84.000,16.400 84.000 C 15.740 84.000,15.200 84.180,15.200 84.400 C 15.200 84.620,14.840 84.800,14.400 84.800 C 13.960 84.800,13.600 84.980,13.600 85.200 C 13.600 85.420,13.240 85.600,12.800 85.600 C 12.360 85.600,12.000 85.780,12.000 86.000 C 12.000 86.220,11.730 86.400,11.400 86.400 C 11.070 86.400,10.800 86.580,10.800 86.800 C 10.800 87.020,10.570 87.200,10.288 87.200 C 10.007 87.200,9.512 87.587,9.188 88.060 C 8.865 88.533,7.835 89.698,6.900 90.649 C 5.965 91.601,5.200 92.564,5.200 92.789 C 5.200 93.015,5.020 93.200,4.800 93.200 C 4.580 93.200,4.400 93.560,4.400 94.000 C 4.400 94.440,4.220 94.800,4.000 94.800 C 3.780 94.800,3.600 95.160,3.600 95.600 C 3.600 96.040,3.420 96.400,3.200 96.400 C 2.980 96.400,2.800 96.940,2.800 97.600 C 2.800 98.260,2.620 98.800,2.400 98.800 C 2.151 98.800,2.000 101.133,2.000 105.000 C 2.000 108.867,2.151 111.200,2.400 111.200 C 2.622 111.200,2.800 112.259,2.800 113.576 C 2.800 114.883,2.980 116.064,3.200 116.200 C 3.420 116.336,3.600 117.607,3.600 119.024 C 3.600 120.475,3.775 121.600,4.000 121.600 C 4.226 121.600,4.400 122.733,4.400 124.200 C 4.400 125.667,4.574 126.800,4.800 126.800 C 5.022 126.800,5.200 127.859,5.200 129.176 C 5.200 130.483,5.380 131.664,5.600 131.800 C 5.820 131.936,6.000 133.207,6.000 134.624 C 6.000 136.075,6.175 137.200,6.400 137.200 C 6.626 137.200,6.800 138.333,6.800 139.800 C 6.800 141.267,6.974 142.400,7.200 142.400 C 7.421 142.400,7.600 143.444,7.600 144.733 C 7.600 146.017,7.735 147.201,7.900 147.364 C 8.162 147.624,8.660 151.764,9.444 160.200 C 9.567 161.520,9.832 162.771,10.034 162.980 C 10.235 163.189,10.400 164.393,10.400 165.656 C 10.400 166.919,10.580 168.064,10.800 168.200 C 11.020 168.336,11.200 169.506,11.200 170.800 C 11.200 172.094,11.380 173.264,11.600 173.400 C 11.820 173.536,12.000 174.706,12.000 176.000 C 12.000 177.294,12.180 178.464,12.400 178.600 C 12.620 178.736,12.800 180.007,12.800 181.424 C 12.800 182.875,12.975 184.000,13.200 184.000 C 13.426 184.000,13.600 185.133,13.600 186.600 C 13.600 188.030,13.765 189.200,13.966 189.200 C 14.167 189.200,14.437 190.370,14.566 191.800 C 14.695 193.230,14.905 195.570,15.034 197.000 C 15.163 198.430,15.433 199.600,15.634 199.600 C 15.835 199.600,16.000 200.734,16.000 202.120 C 16.000 203.506,16.164 204.811,16.365 205.020 C 16.710 205.380,16.925 206.906,17.444 212.700 C 17.567 214.075,17.833 215.200,18.034 215.200 C 18.235 215.200,18.400 216.100,18.400 217.200 C 18.400 218.300,18.580 219.200,18.800 219.200 C 19.020 219.200,19.200 219.740,19.200 220.400 C 19.200 221.060,19.380 221.600,19.600 221.600 C 19.820 221.600,20.000 221.960,20.000 222.400 C 20.000 222.840,20.180 223.200,20.400 223.200 C 20.620 223.200,20.800 223.430,20.800 223.712 C 20.800 223.993,21.160 224.483,21.600 224.800 C 22.040 225.117,22.400 225.621,22.400 225.920 C 22.400 226.668,26.778 230.800,27.571 230.800 C 27.770 230.800,27.993 230.935,28.067 231.100 C 28.140 231.265,29.100 231.825,30.200 232.344 C 31.300 232.863,32.513 233.448,32.895 233.644 C 33.277 233.840,33.862 234.000,34.195 234.000 C 34.528 234.000,34.800 234.180,34.800 234.400 C 34.800 234.620,35.160 234.800,35.600 234.800 C 36.040 234.800,36.400 234.980,36.400 235.200 C 36.400 235.420,36.760 235.600,37.200 235.600 C 37.640 235.600,38.000 235.780,38.000 236.000 C 38.000 236.220,38.540 236.400,39.200 236.400 C 39.860 236.400,40.400 236.580,40.400 236.800 C 40.400 237.020,40.749 237.200,41.176 237.200 C 41.603 237.200,42.071 237.391,42.214 237.623 C 42.747 238.485,44.976 237.455,47.919 234.989 C 52.015 231.556,52.525 231.308,54.122 231.973 C 55.918 232.719,60.696 234.293,62.600 234.765 C 63.480 234.984,65.820 235.539,67.800 236.000 C 69.780 236.461,72.075 237.009,72.900 237.219 C 73.725 237.429,75.075 237.771,75.900 237.981 C 76.725 238.191,77.940 238.469,78.600 238.599 C 79.260 238.729,80.475 239.008,81.300 239.218 C 82.125 239.428,83.520 239.780,84.400 240.000 C 85.280 240.220,86.675 240.572,87.500 240.782 C 88.325 240.992,89.540 241.276,90.200 241.412 C 92.733 241.936,94.517 243.142,95.486 244.986 C 96.024 246.008,96.149 249.777,96.392 272.186 L 96.675 298.200 97.715 301.152 C 103.769 318.325,127.895 323.166,138.683 309.372 C 139.297 308.586,140.126 307.556,140.524 307.083 C 143.110 304.009,144.671 298.596,145.074 291.300 C 145.211 288.825,145.475 286.800,145.661 286.800 C 145.848 286.800,146.000 287.093,146.000 287.451 C 146.000 288.231,148.067 292.382,149.079 293.634 C 151.388 296.489,152.814 297.819,155.485 299.606 C 157.125 300.702,158.724 301.600,159.039 301.600 C 159.353 301.600,159.923 301.762,160.305 301.961 C 165.036 304.420,174.202 303.913,180.200 300.860 C 188.988 296.388,193.200 288.297,193.200 275.887 C 193.200 273.366,193.344 272.042,193.600 272.200 C 193.865 272.364,194.000 261.537,194.000 240.024 C 194.000 218.675,193.863 207.600,193.600 207.600 C 193.380 207.600,193.200 206.711,193.200 205.624 C 193.200 204.537,193.020 203.536,192.800 203.400 C 192.580 203.264,192.394 202.758,192.387 202.276 C 192.363 200.620,191.379 199.786,190.315 200.520 C 187.014 202.800,166.272 224.371,150.284 242.151 C 147.886 244.818,145.671 247.144,145.362 247.320 C 144.883 247.593,144.800 244.669,144.800 227.405 L 144.800 207.170 149.150 202.485 C 157.431 193.567,171.466 180.079,185.322 167.722 C 187.478 165.799,188.246 164.242,187.645 163.015 C 187.425 162.567,187.145 161.435,187.023 160.500 C 186.468 156.268,186.295 155.376,185.959 155.020 C 185.762 154.811,185.600 153.866,185.600 152.920 C 185.600 151.974,185.420 151.200,185.200 151.200 C 184.980 151.200,184.800 150.480,184.800 149.600 C 184.800 148.720,184.620 148.000,184.400 148.000 C 184.180 148.000,184.000 147.471,184.000 146.824 C 184.000 146.177,183.820 145.536,183.600 145.400 C 183.380 145.264,183.200 144.623,183.200 143.976 C 183.200 143.329,183.020 142.800,182.800 142.800 C 182.580 142.800,182.400 142.361,182.400 141.824 C 182.400 141.287,182.220 140.736,182.000 140.600 C 181.780 140.464,181.600 139.924,181.600 139.400 C 181.600 138.876,181.420 138.336,181.200 138.200 C 180.980 138.064,180.800 137.603,180.800 137.176 C 180.800 136.749,180.620 136.400,180.400 136.400 C 180.180 136.400,180.000 136.040,180.000 135.600 C 180.000 135.160,179.820 134.800,179.600 134.800 C 179.380 134.800,179.200 134.339,179.200 133.776 C 179.200 133.196,179.027 132.860,178.800 133.000 C 178.572 133.141,178.400 132.796,178.400 132.200 C 178.400 131.604,178.228 131.259,178.000 131.400 C 177.780 131.536,177.600 131.277,177.600 130.824 C 177.600 130.371,177.420 130.000,177.200 130.000 C 176.980 130.000,176.800 129.640,176.800 129.200 C 176.800 128.760,176.659 128.400,176.486 128.400 C 176.314 128.400,175.875 127.905,175.512 127.300 C 175.149 126.695,174.126 125.390,173.238 124.400 C 171.370 122.319,171.272 121.875,172.489 121.023 C 172.978 120.680,173.232 120.400,173.054 120.400 C 172.876 120.400,173.286 119.645,173.965 118.721 C 174.644 117.798,175.200 116.890,175.200 116.704 C 175.200 116.519,175.560 115.980,176.000 115.508 C 178.004 113.357,177.092 113.219,173.486 115.128 C 169.923 117.014,161.758 120.400,160.774 120.400 C 160.374 120.400,159.936 120.580,159.800 120.800 C 159.664 121.020,159.034 121.200,158.400 121.200 C 157.766 121.200,157.136 121.380,157.000 121.600 C 156.864 121.820,156.144 122.000,155.400 122.000 C 154.656 122.000,153.936 122.180,153.800 122.400 C 153.664 122.620,152.879 122.800,152.056 122.800 C 151.233 122.800,150.389 122.964,150.180 123.165 C 148.834 124.457,121.092 124.492,118.200 123.206 C 117.760 123.010,116.725 122.748,115.900 122.625 C 112.543 122.122,111.582 121.895,111.373 121.556 C 111.252 121.360,110.634 121.200,110.000 121.200 C 109.366 121.200,108.736 121.020,108.600 120.800 C 108.464 120.580,108.001 120.400,107.571 120.400 C 107.141 120.400,106.477 120.234,106.095 120.032 C 105.713 119.830,104.320 119.262,103.000 118.771 C 87.578 113.032,74.139 100.047,70.119 87.000 C 68.094 80.426,67.840 70.966,69.572 66.600 C 69.746 66.160,70.116 65.080,70.394 64.200 C 71.451 60.853,74.182 55.739,76.265 53.209 C 76.541 52.874,77.315 51.899,77.985 51.043 C 80.551 47.764,83.866 44.585,88.400 41.056 C 94.308 36.457,105.931 31.291,114.600 29.411 C 134.278 25.143,153.793 27.242,170.663 35.442 C 175.999 38.036,176.800 38.317,176.800 37.600 C 176.800 37.380,176.620 37.200,176.400 37.200 C 176.180 37.200,176.000 36.917,176.000 36.571 C 176.000 36.226,175.728 35.671,175.396 35.339 C 175.064 35.007,174.878 34.598,174.982 34.429 C 175.086 34.260,174.638 33.611,173.986 32.986 C 173.334 32.362,172.800 31.669,172.800 31.447 C 172.800 31.225,172.305 30.511,171.700 29.860 C 171.095 29.209,170.870 28.808,171.200 28.969 C 171.530 29.129,171.395 28.903,170.900 28.466 C 170.405 28.029,170.000 27.565,170.000 27.435 C 170.000 27.305,169.325 26.505,168.500 25.656 C 167.675 24.807,166.138 23.187,165.083 22.056 C 164.029 20.925,163.006 20.000,162.810 20.000 C 162.614 20.000,162.349 19.669,162.220 19.264 C 162.092 18.859,161.500 18.274,160.906 17.964 C 159.864 17.421,158.580 16.404,156.532 14.500 C 155.999 14.005,155.411 13.600,155.224 13.600 C 155.037 13.600,154.342 13.105,153.678 12.500 C 153.014 11.895,152.230 11.342,151.936 11.270 C 151.641 11.199,150.995 10.762,150.500 10.300 C 150.005 9.838,149.600 9.610,149.600 9.792 C 149.600 9.975,149.240 9.798,148.800 9.400 C 148.360 9.002,148.000 8.806,148.000 8.965 C 148.000 9.124,147.505 8.921,146.900 8.513 C 146.295 8.105,145.350 7.570,144.800 7.325 C 144.250 7.079,142.596 6.321,141.125 5.639 C 139.654 4.958,138.180 4.400,137.849 4.400 C 137.518 4.400,137.136 4.220,137.000 4.000 C 136.864 3.780,136.313 3.600,135.776 3.600 C 135.239 3.600,134.800 3.420,134.800 3.200 C 134.800 2.980,134.271 2.800,133.624 2.800 C 132.977 2.800,132.336 2.620,132.200 2.400 C 132.064 2.180,131.413 2.000,130.753 2.000 C 130.093 2.000,129.644 1.853,129.755 1.674 C 129.865 1.494,129.115 1.304,128.087 1.250 C 127.060 1.197,126.091 0.947,125.935 0.695 C 125.650 0.234,101.907 -0.110,96.700 0.272 M357.300 75.476 C 357.685 75.576,358.315 75.576,358.700 75.476 C 359.085 75.375,358.770 75.293,358.000 75.293 C 357.230 75.293,356.915 75.375,357.300 75.476 " stroke="none" fill="#3d5769" fill-rule="evenodd"></path><path id="path2" d="M361.200 0.294 C 359.104 1.101,358.400 3.145,358.400 8.426 L 358.400 12.800 354.000 12.800 C 351.333 12.800,349.600 12.958,349.600 13.200 C 349.600 13.420,349.185 13.600,348.678 13.600 C 347.610 13.600,344.800 16.013,344.800 16.930 C 344.800 17.273,344.620 17.664,344.400 17.800 C 344.180 17.936,344.000 19.297,344.000 20.824 C 344.000 22.408,344.172 23.600,344.400 23.600 C 344.620 23.600,344.800 23.876,344.800 24.213 C 344.800 25.221,347.460 27.600,348.587 27.600 C 349.144 27.600,349.600 27.780,349.600 28.000 C 349.600 28.242,351.333 28.400,354.000 28.400 L 358.400 28.400 358.400 33.026 C 358.400 38.387,358.935 39.774,361.543 41.170 C 362.678 41.777,368.788 41.689,369.943 41.049 C 372.302 39.740,373.200 37.451,373.200 32.740 L 373.200 28.400 377.400 28.400 C 379.933 28.400,381.600 28.241,381.600 28.000 C 381.600 27.780,381.960 27.600,382.400 27.600 C 382.840 27.600,383.200 27.420,383.200 27.200 C 383.200 26.980,383.483 26.800,383.829 26.800 C 384.646 26.800,385.200 26.187,386.300 24.062 C 387.231 22.265,387.572 18.400,386.800 18.400 C 386.580 18.400,386.400 18.128,386.400 17.795 C 386.400 16.100,383.900 13.600,382.205 13.600 C 381.872 13.600,381.600 13.420,381.600 13.200 C 381.600 12.959,379.933 12.800,377.400 12.800 L 373.200 12.800 373.200 8.638 C 373.200 1.604,371.712 -0.025,365.340 0.032 C 363.393 0.049,361.530 0.167,361.200 0.294 M130.800 27.859 C 115.666 28.743,105.310 31.656,93.400 38.380 C 76.968 47.656,66.519 66.294,69.394 81.200 C 70.498 86.923,70.348 86.350,71.496 89.200 C 72.126 90.765,73.767 94.178,73.995 94.400 C 74.109 94.510,74.437 95.059,74.725 95.620 C 76.910 99.871,84.435 107.565,90.238 111.479 C 99.118 117.470,109.957 121.393,123.400 123.480 C 126.447 123.954,142.606 123.822,146.000 123.297 C 156.035 121.743,162.433 119.801,170.600 115.832 C 173.460 114.442,176.205 113.179,176.700 113.025 C 177.227 112.862,177.600 112.425,177.600 111.973 C 177.600 111.548,177.780 111.200,178.000 111.200 C 178.220 111.200,178.400 110.840,178.400 110.400 C 178.400 109.960,178.580 109.600,178.800 109.600 C 179.020 109.600,179.200 109.240,179.200 108.800 C 179.200 108.360,179.380 108.000,179.600 108.000 C 179.820 108.000,180.000 107.640,180.000 107.200 C 180.000 106.760,180.180 106.400,180.400 106.400 C 180.620 106.400,180.800 106.029,180.800 105.576 C 180.800 105.123,180.943 104.841,181.117 104.949 C 181.291 105.056,181.477 104.572,181.530 103.872 C 181.582 103.173,181.800 102.540,182.013 102.467 C 182.226 102.393,182.400 101.898,182.400 101.367 C 182.400 100.835,182.580 100.400,182.800 100.400 C 183.020 100.400,183.200 99.759,183.200 98.976 C 183.200 98.129,183.362 97.653,183.600 97.800 C 183.847 97.952,184.000 97.271,184.000 96.024 C 184.000 94.911,184.180 94.000,184.400 94.000 C 184.620 94.000,184.800 93.190,184.800 92.200 C 184.800 91.210,184.980 90.400,185.200 90.400 C 185.422 90.400,185.600 89.333,185.600 88.000 C 185.600 86.667,185.778 85.600,186.000 85.600 C 186.256 85.600,186.400 82.067,186.400 75.800 C 186.400 69.533,186.256 66.000,186.000 66.000 C 185.778 66.000,185.600 64.933,185.600 63.600 C 185.600 62.267,185.422 61.200,185.200 61.200 C 184.980 61.200,184.800 60.491,184.800 59.624 C 184.800 58.757,184.620 57.936,184.400 57.800 C 184.180 57.664,184.000 56.933,184.000 56.176 C 184.000 55.419,183.820 54.800,183.600 54.800 C 183.380 54.800,183.200 54.170,183.200 53.400 C 183.200 52.630,183.020 52.000,182.800 52.000 C 182.580 52.000,182.400 51.550,182.400 51.000 C 182.400 50.450,182.220 50.000,182.000 50.000 C 181.780 50.000,181.600 49.460,181.600 48.800 C 181.600 48.140,181.420 47.600,181.200 47.600 C 180.980 47.600,180.800 47.240,180.800 46.800 C 180.800 46.360,180.620 46.000,180.400 46.000 C 180.180 46.000,180.000 45.640,180.000 45.200 C 180.000 44.760,179.820 44.400,179.600 44.400 C 179.380 44.400,179.200 44.040,179.200 43.600 C 179.200 43.160,179.020 42.800,178.800 42.800 C 178.580 42.800,178.400 42.440,178.400 42.000 C 178.400 41.560,178.220 41.200,178.000 41.200 C 177.780 41.200,177.600 40.917,177.600 40.571 C 177.600 38.475,163.701 32.261,153.581 29.832 C 147.881 28.464,136.827 27.506,130.800 27.859 M239.292 41.228 C 237.394 41.481,235.607 42.608,235.005 43.931 C 234.788 44.409,234.473 44.800,234.305 44.800 C 234.137 44.800,234.000 46.960,234.000 49.600 L 234.000 54.400 229.800 54.400 C 227.267 54.400,225.600 54.559,225.600 54.800 C 225.600 55.020,225.144 55.200,224.587 55.200 C 223.460 55.200,220.800 57.579,220.800 58.587 C 220.800 58.924,220.620 59.200,220.400 59.200 C 220.172 59.200,220.000 60.392,220.000 61.976 C 220.000 63.503,220.180 64.864,220.400 65.000 C 220.620 65.136,220.800 65.524,220.800 65.863 C 220.800 66.756,223.145 68.809,224.467 69.073 C 225.090 69.198,225.600 69.458,225.600 69.650 C 225.600 69.843,227.490 70.000,229.800 70.000 L 234.000 70.000 234.000 74.600 C 234.000 77.400,234.157 79.200,234.400 79.200 C 234.620 79.200,234.800 79.478,234.800 79.818 C 234.800 80.618,236.582 82.400,237.382 82.400 C 237.722 82.400,238.000 82.580,238.000 82.800 C 238.000 83.035,239.400 83.200,241.400 83.200 C 243.400 83.200,244.800 83.035,244.800 82.800 C 244.800 82.580,245.078 82.400,245.418 82.400 C 246.218 82.400,248.000 80.618,248.000 79.818 C 248.000 79.478,248.180 79.200,248.400 79.200 C 248.643 79.200,248.800 77.400,248.800 74.600 L 248.800 70.000 253.000 70.000 C 255.533 70.000,257.200 69.841,257.200 69.600 C 257.200 69.380,257.472 69.200,257.805 69.200 C 259.379 69.200,261.999 66.764,262.000 65.300 C 262.000 64.805,262.180 64.400,262.400 64.400 C 262.622 64.400,262.800 63.333,262.800 62.000 C 262.800 60.667,262.622 59.600,262.400 59.600 C 262.180 59.600,262.000 59.234,262.000 58.787 C 262.000 57.745,259.472 55.200,258.437 55.200 C 258.003 55.200,257.536 55.020,257.400 54.800 C 257.261 54.575,255.329 54.400,252.976 54.400 L 248.800 54.400 248.800 49.600 C 248.800 46.667,248.644 44.800,248.400 44.800 C 248.180 44.800,248.000 44.561,248.000 44.270 C 248.000 42.251,243.473 40.670,239.292 41.228 M136.754 42.020 C 144.295 43.216,151.229 45.350,155.200 47.696 C 166.390 54.308,171.638 62.592,171.754 73.828 C 171.798 78.053,171.751 78.321,170.723 79.672 C 166.479 85.248,158.800 81.904,158.800 74.480 C 158.800 64.038,148.602 56.095,133.800 55.008 C 128.048 54.586,126.171 53.675,124.882 50.681 C 122.302 44.691,127.891 40.614,136.754 42.020 M279.032 186.124 C 275.842 188.101,275.200 189.620,275.200 195.184 L 275.200 199.600 270.200 199.600 C 267.133 199.600,265.200 199.755,265.200 200.000 C 265.200 200.220,264.958 200.400,264.662 200.400 C 263.990 200.400,263.126 201.359,262.041 203.312 C 261.148 204.918,260.820 209.600,261.600 209.600 C 261.820 209.600,262.000 209.876,262.000 210.213 C 262.000 211.009,264.591 213.600,265.387 213.600 C 265.724 213.600,266.000 213.780,266.000 214.000 C 266.000 214.243,267.800 214.400,270.600 214.400 L 275.200 214.400 275.250 218.400 C 275.278 220.600,275.345 222.580,275.400 222.800 C 275.455 223.020,275.522 223.455,275.550 223.767 C 275.632 224.700,278.673 227.600,279.569 227.600 C 280.026 227.600,280.400 227.780,280.400 228.000 C 280.400 228.220,281.390 228.400,282.600 228.400 C 283.810 228.400,284.800 228.220,284.800 228.000 C 284.800 227.780,285.258 227.600,285.818 227.600 C 286.882 227.600,288.003 226.669,289.509 224.538 C 290.301 223.417,290.400 222.784,290.400 218.838 L 290.400 214.400 295.000 214.400 C 297.800 214.400,299.600 214.243,299.600 214.000 C 299.600 213.780,299.876 213.600,300.213 213.600 C 301.132 213.600,303.331 211.196,303.900 209.572 C 304.498 207.864,304.565 204.400,304.000 204.400 C 303.780 204.400,303.600 204.117,303.600 203.771 C 303.600 203.426,303.375 202.892,303.100 202.585 C 302.825 202.279,302.397 201.797,302.149 201.514 C 300.583 199.729,300.113 199.600,295.195 199.600 L 290.400 199.600 290.400 195.080 C 290.400 190.417,289.302 187.200,287.711 187.200 C 287.430 187.200,287.199 187.065,287.197 186.900 C 287.185 185.739,280.654 185.117,279.032 186.124 " stroke="none" fill="#f3b71c" fill-rule="evenodd"></path><path id="path3" d="M127.551 27.381 C 127.414 27.519,125.614 27.802,123.551 28.011 C 118.411 28.531,115.237 29.137,110.600 30.485 C 102.308 32.894,93.491 37.093,88.400 41.056 C 83.866 44.585,80.551 47.764,77.985 51.043 C 77.315 51.899,76.541 52.874,76.265 53.209 C 74.182 55.739,71.451 60.853,70.394 64.200 C 70.116 65.080,69.746 66.160,69.572 66.600 C 67.840 70.966,68.094 80.426,70.119 87.000 C 72.423 94.476,79.469 104.132,86.654 109.657 C 90.857 112.889,98.209 116.988,103.000 118.771 C 104.320 119.262,105.713 119.830,106.095 120.032 C 106.477 120.234,107.141 120.400,107.571 120.400 C 108.001 120.400,108.464 120.580,108.600 120.800 C 108.736 121.020,109.366 121.200,110.000 121.200 C 110.634 121.200,111.252 121.360,111.373 121.556 C 111.582 121.895,112.543 122.122,115.900 122.625 C 116.725 122.748,117.760 123.010,118.200 123.206 C 121.092 124.492,148.834 124.457,150.180 123.165 C 150.389 122.964,151.233 122.800,152.056 122.800 C 152.879 122.800,153.664 122.620,153.800 122.400 C 153.936 122.180,154.656 122.000,155.400 122.000 C 156.144 122.000,156.864 121.820,157.000 121.600 C 157.136 121.380,157.766 121.200,158.400 121.200 C 159.034 121.200,159.664 121.020,159.800 120.800 C 159.936 120.580,160.362 120.400,160.746 120.400 C 162.175 120.400,177.600 113.559,177.600 112.925 C 177.600 112.565,175.686 113.360,170.600 115.832 C 162.433 119.801,156.035 121.743,146.000 123.297 C 142.606 123.822,126.447 123.954,123.400 123.480 C 109.957 121.393,99.118 117.470,90.238 111.479 C 84.435 107.565,76.910 99.871,74.725 95.620 C 74.437 95.059,74.109 94.510,73.995 94.400 C 73.767 94.178,72.126 90.765,71.496 89.200 C 70.348 86.350,70.498 86.923,69.394 81.200 C 66.811 67.808,74.750 51.508,88.740 41.477 C 109.115 26.867,139.611 23.584,164.600 33.308 C 171.678 36.062,177.600 39.371,177.600 40.571 C 177.600 40.917,177.780 41.200,178.000 41.200 C 178.220 41.200,178.400 41.560,178.400 42.000 C 178.400 42.440,178.580 42.800,178.800 42.800 C 179.020 42.800,179.200 43.160,179.200 43.600 C 179.200 44.040,179.380 44.400,179.600 44.400 C 179.820 44.400,180.000 44.040,180.000 43.600 C 180.000 43.160,179.820 42.800,179.600 42.800 C 179.380 42.800,179.200 42.440,179.200 42.000 C 179.200 41.560,179.020 41.200,178.800 41.200 C 178.580 41.200,178.400 40.840,178.400 40.400 C 178.400 39.960,178.241 39.600,178.047 39.600 C 177.852 39.600,177.599 39.240,177.484 38.800 C 177.369 38.360,176.971 38.000,176.600 38.000 C 176.229 38.000,173.557 36.851,170.663 35.446 C 165.881 33.125,160.854 31.210,156.600 30.088 C 151.565 28.760,151.136 28.673,146.000 27.935 C 142.836 27.481,127.899 27.032,127.551 27.381 M180.000 45.400 C 180.000 45.730,180.180 46.000,180.400 46.000 C 180.620 46.000,180.800 45.730,180.800 45.400 C 180.800 45.070,180.620 44.800,180.400 44.800 C 180.180 44.800,180.000 45.070,180.000 45.400 M180.800 47.000 C 180.800 47.330,180.980 47.600,181.200 47.600 C 181.420 47.600,181.600 47.330,181.600 47.000 C 181.600 46.670,181.420 46.400,181.200 46.400 C 180.980 46.400,180.800 46.670,180.800 47.000 M181.600 49.400 C 181.600 49.730,181.780 50.000,182.000 50.000 C 182.220 50.000,182.400 49.730,182.400 49.400 C 182.400 49.070,182.220 48.800,182.000 48.800 C 181.780 48.800,181.600 49.070,181.600 49.400 M182.400 51.176 C 182.400 51.629,182.580 52.000,182.800 52.000 C 183.020 52.000,183.200 51.741,183.200 51.424 C 183.200 51.107,183.020 50.736,182.800 50.600 C 182.580 50.464,182.400 50.723,182.400 51.176 M183.206 53.700 C 183.203 54.305,183.380 54.800,183.600 54.800 C 184.106 54.800,184.106 53.983,183.600 53.200 C 183.298 52.732,183.211 52.843,183.206 53.700 M184.000 56.776 C 184.000 57.203,184.180 57.664,184.400 57.800 C 184.627 57.940,184.800 57.604,184.800 57.024 C 184.800 56.461,184.620 56.000,184.400 56.000 C 184.180 56.000,184.000 56.349,184.000 56.776 M184.800 60.200 C 184.800 60.750,184.980 61.200,185.200 61.200 C 185.420 61.200,185.600 60.750,185.600 60.200 C 185.600 59.650,185.420 59.200,185.200 59.200 C 184.980 59.200,184.800 59.650,184.800 60.200 M185.867 63.467 C 185.445 63.888,185.556 66.000,186.000 66.000 C 186.220 66.000,186.400 65.370,186.400 64.600 C 186.400 63.161,186.327 63.006,185.867 63.467 M186.400 76.024 C 186.400 79.937,186.540 81.961,186.800 81.800 C 187.037 81.654,187.200 79.196,187.200 75.776 C 187.200 72.192,187.048 70.000,186.800 70.000 C 186.551 70.000,186.400 72.275,186.400 76.024 M355.600 75.716 C 355.490 75.830,354.770 75.976,354.000 76.041 C 353.230 76.106,352.420 76.282,352.200 76.434 C 351.980 76.586,351.080 76.806,350.200 76.923 C 348.066 77.207,346.374 77.586,345.400 78.000 C 344.557 78.358,343.060 78.715,340.900 79.072 C 340.185 79.191,339.600 79.448,339.600 79.644 C 339.600 79.840,339.208 80.000,338.728 80.000 C 337.808 80.000,335.472 80.660,334.305 81.249 C 333.923 81.442,333.158 81.600,332.605 81.600 C 332.052 81.600,331.600 81.780,331.600 82.000 C 331.600 82.220,331.071 82.400,330.424 82.400 C 329.777 82.400,329.136 82.580,329.000 82.800 C 328.864 83.020,328.223 83.200,327.576 83.200 C 326.929 83.200,326.400 83.380,326.400 83.600 C 326.400 83.820,325.860 84.000,325.200 84.000 C 324.540 84.000,324.000 84.180,324.000 84.400 C 324.000 84.620,323.460 84.800,322.800 84.800 C 322.140 84.800,321.600 84.980,321.600 85.200 C 321.600 85.420,321.238 85.600,320.795 85.600 C 320.352 85.600,319.632 85.780,319.195 86.000 C 318.758 86.220,318.042 86.580,317.605 86.800 C 317.168 87.020,316.448 87.200,316.005 87.200 C 315.562 87.200,315.200 87.380,315.200 87.600 C 315.200 87.820,314.660 88.000,314.000 88.000 C 313.340 88.000,312.800 88.180,312.800 88.400 C 312.800 88.620,312.440 88.800,312.000 88.800 C 311.560 88.800,311.200 88.980,311.200 89.200 C 311.200 89.420,310.750 89.600,310.200 89.600 C 309.650 89.600,309.200 89.780,309.200 90.000 C 309.200 90.220,308.660 90.400,308.000 90.400 C 307.340 90.400,306.800 90.580,306.800 90.800 C 306.800 91.020,306.440 91.200,306.000 91.200 C 305.560 91.200,305.200 91.360,305.200 91.556 C 305.200 91.752,304.615 92.000,303.900 92.106 C 302.562 92.305,299.955 93.226,299.600 93.625 C 299.490 93.749,298.320 94.272,297.000 94.787 C 295.680 95.303,294.429 95.877,294.220 96.062 C 294.011 96.248,293.516 96.400,293.120 96.400 C 292.724 96.400,292.400 96.580,292.400 96.800 C 292.400 97.020,291.950 97.200,291.400 97.200 C 290.850 97.200,290.400 97.380,290.400 97.600 C 290.400 97.820,290.040 98.000,289.600 98.000 C 289.160 98.000,288.800 98.180,288.800 98.400 C 288.800 98.620,288.440 98.800,288.000 98.800 C 287.560 98.800,287.200 98.980,287.200 99.200 C 287.200 99.420,286.840 99.600,286.400 99.600 C 285.960 99.600,285.600 99.780,285.600 100.000 C 285.600 100.220,285.240 100.400,284.800 100.400 C 284.360 100.400,284.000 100.580,284.000 100.800 C 284.000 101.020,283.766 101.200,283.480 101.200 C 282.744 101.200,280.807 102.141,280.803 102.500 C 280.801 102.665,280.440 102.800,280.000 102.800 C 279.560 102.800,279.200 102.980,279.200 103.200 C 279.200 103.420,278.840 103.600,278.400 103.600 C 277.960 103.600,277.600 103.780,277.600 104.000 C 277.600 104.220,277.330 104.400,277.000 104.400 C 276.670 104.400,276.400 104.580,276.400 104.800 C 276.400 105.020,276.166 105.200,275.880 105.200 C 275.144 105.200,273.207 106.141,273.203 106.500 C 273.201 106.665,272.840 106.800,272.400 106.800 C 271.960 106.800,271.600 106.980,271.600 107.200 C 271.600 107.420,271.240 107.600,270.800 107.600 C 270.360 107.600,270.000 107.780,270.000 108.000 C 270.000 108.220,269.640 108.400,269.200 108.400 C 268.760 108.400,268.400 108.610,268.400 108.867 C 268.400 109.123,268.288 109.221,268.150 109.084 C 267.863 108.796,264.979 110.187,264.604 110.794 C 264.466 111.017,264.003 111.200,263.576 111.200 C 263.149 111.200,262.797 111.335,262.794 111.500 C 262.790 111.665,261.882 112.245,260.774 112.788 C 259.667 113.332,258.417 114.097,257.997 114.488 C 257.577 114.880,256.956 115.200,256.617 115.200 C 256.278 115.200,256.000 115.380,256.000 115.600 C 256.000 115.820,255.640 116.000,255.200 116.000 C 254.760 116.000,254.400 116.180,254.400 116.400 C 254.400 116.620,254.130 116.800,253.800 116.800 C 253.470 116.800,253.200 116.980,253.200 117.200 C 253.200 117.420,252.930 117.600,252.600 117.600 C 252.270 117.600,252.000 117.780,252.000 118.000 C 252.000 118.220,251.680 118.400,251.288 118.400 C 250.897 118.400,250.317 118.760,250.000 119.200 C 249.683 119.640,249.103 120.000,248.712 120.000 C 248.320 120.000,248.000 120.180,248.000 120.400 C 248.000 120.620,247.807 120.800,247.572 120.800 C 247.337 120.800,246.359 121.340,245.400 122.000 C 244.441 122.660,243.503 123.200,243.316 123.200 C 243.129 123.200,242.717 123.560,242.400 124.000 C 242.083 124.440,241.601 124.800,241.329 124.800 C 240.909 124.800,238.761 126.054,237.400 127.094 C 237.180 127.262,236.505 127.655,235.900 127.968 C 235.295 128.280,234.800 128.685,234.800 128.868 C 234.800 129.050,234.480 129.200,234.088 129.200 C 233.697 129.200,233.117 129.560,232.800 130.000 C 232.483 130.440,231.943 130.800,231.600 130.800 C 231.257 130.800,230.717 131.160,230.400 131.600 C 230.083 132.040,229.638 132.400,229.412 132.400 C 229.185 132.401,228.520 132.806,227.934 133.300 C 225.540 135.319,225.225 135.558,224.332 136.032 C 223.819 136.303,223.109 136.857,222.753 137.263 C 222.397 137.668,221.901 138.000,221.649 138.000 C 221.398 138.000,220.628 138.540,219.937 139.200 C 219.246 139.860,218.478 140.400,218.229 140.400 C 217.980 140.400,217.517 140.760,217.200 141.200 C 216.883 141.640,216.348 142.003,216.012 142.006 C 215.476 142.012,214.210 142.922,211.946 144.928 C 211.586 145.247,210.687 145.934,209.947 146.454 C 209.207 146.974,208.310 147.715,207.954 148.100 C 207.598 148.485,207.102 148.800,206.853 148.800 C 206.604 148.800,206.400 148.980,206.400 149.200 C 206.400 149.420,206.220 149.600,206.000 149.600 C 205.781 149.600,204.859 150.320,203.952 151.200 C 203.045 152.080,202.127 152.800,201.912 152.800 C 201.697 152.800,201.044 153.302,200.460 153.915 C 199.877 154.529,198.770 155.472,198.000 156.011 C 197.230 156.550,196.078 157.488,195.441 158.096 C 194.803 158.703,194.157 159.200,194.006 159.200 C 193.854 159.200,193.010 159.875,192.130 160.700 C 191.249 161.525,189.870 162.715,189.064 163.344 C 188.259 163.974,187.600 164.736,187.600 165.039 C 187.600 165.633,187.250 165.969,177.000 175.236 C 168.933 182.529,155.243 195.924,149.150 202.485 L 144.800 207.170 144.800 227.405 C 144.800 244.669,144.883 247.593,145.362 247.320 C 145.671 247.144,147.886 244.818,150.284 242.151 C 170.567 219.595,190.090 199.642,191.390 200.141 C 191.752 200.280,193.325 199.030,195.619 196.781 C 197.629 194.811,199.420 193.200,199.600 193.200 C 199.779 193.200,200.738 192.435,201.730 191.500 C 202.723 190.565,204.202 189.260,205.017 188.600 C 205.833 187.940,207.283 186.635,208.239 185.700 C 209.196 184.765,210.124 184.000,210.302 184.000 C 210.480 184.000,211.569 183.100,212.722 182.000 C 213.875 180.900,215.095 180.000,215.433 180.000 C 215.771 180.000,215.936 179.820,215.800 179.600 C 215.664 179.380,215.761 179.200,216.016 179.200 C 216.271 179.200,216.983 178.660,217.600 178.000 C 218.217 177.340,218.919 176.800,219.160 176.800 C 219.402 176.800,219.600 176.620,219.600 176.400 C 219.600 176.180,219.855 176.000,220.167 176.000 C 220.478 176.000,220.793 175.862,220.867 175.693 C 220.940 175.524,221.900 174.669,223.000 173.793 C 224.100 172.917,225.090 172.101,225.200 171.981 C 225.310 171.860,226.030 171.326,226.800 170.794 C 227.570 170.262,228.438 169.595,228.729 169.313 C 229.019 169.031,229.418 168.800,229.615 168.800 C 229.812 168.800,230.603 168.170,231.373 167.400 C 232.143 166.630,232.983 166.000,233.240 166.000 C 233.496 166.000,233.997 165.674,234.353 165.275 C 234.709 164.876,235.900 163.939,237.000 163.191 C 238.100 162.444,239.349 161.511,239.775 161.117 C 240.202 160.722,240.715 160.400,240.915 160.400 C 241.115 160.400,241.783 159.860,242.400 159.200 C 243.017 158.540,243.796 158.000,244.132 158.000 C 244.468 158.000,244.988 157.775,245.288 157.500 C 245.588 157.225,246.186 156.772,246.617 156.494 C 247.048 156.216,247.940 155.642,248.600 155.218 C 249.260 154.794,250.017 154.257,250.283 154.024 C 250.549 153.791,250.954 153.600,251.183 153.600 C 251.412 153.600,251.600 153.441,251.600 153.246 C 251.600 153.051,252.222 152.596,252.983 152.235 C 253.744 151.874,254.471 151.408,254.600 151.200 C 254.729 150.992,255.411 150.547,256.117 150.211 C 256.823 149.876,257.918 149.155,258.552 148.609 C 259.186 148.064,259.828 147.694,259.979 147.787 C 260.131 147.881,260.507 147.607,260.815 147.179 C 261.124 146.750,261.614 146.400,261.905 146.400 C 262.196 146.400,262.820 146.040,263.292 145.600 C 263.764 145.160,264.387 144.800,264.675 144.800 C 264.964 144.800,265.200 144.620,265.200 144.400 C 265.200 144.180,265.520 144.000,265.912 144.000 C 266.303 144.000,266.883 143.640,267.200 143.200 C 267.517 142.760,268.097 142.400,268.488 142.400 C 268.880 142.400,269.200 142.241,269.200 142.047 C 269.200 141.852,269.515 141.593,269.900 141.471 C 270.802 141.184,276.519 138.035,276.792 137.674 C 276.907 137.523,277.270 137.341,277.600 137.270 C 277.930 137.198,278.260 136.973,278.333 136.770 C 278.407 136.566,278.812 136.400,279.233 136.400 C 279.655 136.400,280.000 136.220,280.000 136.000 C 280.000 135.780,280.360 135.600,280.800 135.600 C 281.240 135.600,281.600 135.420,281.600 135.200 C 281.600 134.980,281.960 134.800,282.400 134.800 C 282.840 134.800,283.200 134.620,283.200 134.400 C 283.200 134.180,283.436 134.000,283.725 134.000 C 284.013 134.000,284.636 133.640,285.108 133.200 C 285.580 132.760,286.244 132.400,286.583 132.400 C 286.922 132.400,287.200 132.220,287.200 132.000 C 287.200 131.780,287.560 131.600,288.000 131.600 C 288.440 131.600,288.800 131.454,288.800 131.275 C 288.800 131.096,289.430 130.702,290.200 130.400 C 290.970 130.098,291.600 129.704,291.600 129.525 C 291.600 129.346,291.960 129.200,292.400 129.200 C 292.840 129.200,293.200 129.020,293.200 128.800 C 293.200 128.580,293.560 128.400,294.000 128.400 C 294.440 128.400,294.800 128.220,294.800 128.000 C 294.800 127.780,295.160 127.600,295.600 127.600 C 296.040 127.600,296.400 127.420,296.400 127.200 C 296.400 126.980,296.760 126.800,297.200 126.800 C 297.640 126.800,298.000 126.620,298.000 126.400 C 298.000 126.180,298.360 126.000,298.800 126.000 C 299.240 126.000,299.600 125.820,299.600 125.600 C 299.600 125.380,299.966 125.200,300.413 125.200 C 300.861 125.200,302.115 124.750,303.200 124.200 C 304.285 123.650,305.449 123.200,305.787 123.200 C 306.124 123.200,306.400 123.020,306.400 122.800 C 306.400 122.580,306.672 122.400,307.005 122.400 C 307.338 122.400,307.923 122.243,308.305 122.050 C 311.280 120.552,312.553 120.000,313.038 120.000 C 313.347 120.000,313.600 119.820,313.600 119.600 C 313.600 119.380,314.140 119.200,314.800 119.200 C 315.460 119.200,316.000 119.020,316.000 118.800 C 316.000 118.580,316.360 118.400,316.800 118.400 C 317.240 118.400,317.600 118.220,317.600 118.000 C 317.600 117.780,317.962 117.600,318.405 117.600 C 318.848 117.600,319.523 117.441,319.905 117.247 C 320.287 117.052,321.140 116.671,321.800 116.400 C 322.460 116.129,323.313 115.748,323.695 115.553 C 324.077 115.359,324.752 115.200,325.195 115.200 C 325.638 115.200,326.000 115.020,326.000 114.800 C 326.000 114.580,326.439 114.400,326.976 114.400 C 327.513 114.400,328.064 114.220,328.200 114.000 C 328.336 113.780,328.715 113.600,329.043 113.600 C 329.370 113.600,330.035 113.179,330.519 112.664 C 331.085 112.063,333.188 111.150,336.400 110.111 C 342.984 107.982,343.321 107.907,346.666 107.825 C 348.242 107.786,349.784 107.545,350.092 107.289 C 350.401 107.033,351.240 106.779,351.957 106.725 C 352.674 106.670,353.348 106.485,353.454 106.313 C 353.560 106.141,354.256 106.000,355.000 106.000 C 355.744 106.000,356.464 105.820,356.600 105.600 C 356.736 105.380,357.456 105.200,358.200 105.200 C 358.944 105.200,359.664 105.020,359.800 104.800 C 359.936 104.580,360.566 104.400,361.200 104.400 C 361.834 104.400,362.464 104.220,362.600 104.000 C 362.736 103.780,363.242 103.600,363.724 103.600 C 364.206 103.599,365.123 103.149,365.762 102.600 C 366.401 102.050,367.049 101.600,367.201 101.600 C 367.782 101.600,369.200 100.077,369.200 99.453 C 369.200 99.094,369.359 98.800,369.553 98.800 C 371.259 98.800,373.463 87.703,372.040 86.280 C 371.798 86.038,371.600 85.426,371.600 84.920 C 371.600 84.414,371.462 84.000,371.294 84.000 C 371.126 84.000,370.684 83.296,370.311 82.436 C 368.735 78.799,364.181 76.083,359.068 75.732 C 357.271 75.609,355.710 75.602,355.600 75.716 M185.600 87.000 C 185.600 87.770,185.780 88.400,186.000 88.400 C 186.220 88.400,186.400 87.770,186.400 87.000 C 186.400 86.230,186.220 85.600,186.000 85.600 C 185.780 85.600,185.600 86.230,185.600 87.000 M184.800 91.400 C 184.800 91.950,184.980 92.400,185.200 92.400 C 185.420 92.400,185.600 91.950,185.600 91.400 C 185.600 90.850,185.420 90.400,185.200 90.400 C 184.980 90.400,184.800 90.850,184.800 91.400 M184.000 94.800 C 184.000 95.240,184.180 95.600,184.400 95.600 C 184.620 95.600,184.800 95.240,184.800 94.800 C 184.800 94.360,184.620 94.000,184.400 94.000 C 184.180 94.000,184.000 94.360,184.000 94.800 " stroke="none" fill="#a46c43" fill-rule="evenodd"></path><path id="path4" d="M128.719 42.145 C 124.007 44.236,123.013 49.564,126.684 53.056 C 128.119 54.421,128.965 54.653,133.800 55.008 C 144.723 55.810,153.549 60.390,156.671 66.877 C 158.377 70.421,158.800 71.930,158.800 74.480 C 158.800 81.904,166.479 85.248,170.723 79.672 C 171.751 78.321,171.798 78.053,171.754 73.828 C 171.638 62.592,166.390 54.308,155.200 47.696 C 148.425 43.693,132.671 40.391,128.719 42.145 M343.800 108.400 C 343.664 108.620,343.034 108.800,342.400 108.800 C 341.766 108.800,341.136 108.980,341.000 109.200 C 340.864 109.420,340.401 109.600,339.971 109.600 C 339.541 109.600,338.877 109.759,338.495 109.954 C 338.113 110.149,336.540 110.703,335.000 111.185 C 333.460 111.668,331.705 112.273,331.100 112.529 L 330.000 112.995 330.000 152.441 L 330.000 191.888 328.747 194.444 C 328.058 195.850,327.355 197.360,327.184 197.800 C 326.853 198.651,326.316 200.068,326.198 200.400 C 326.160 200.510,325.829 201.269,325.464 202.087 C 325.099 202.905,324.800 203.839,324.800 204.164 C 324.800 204.488,324.620 204.864,324.400 205.000 C 324.180 205.136,324.000 205.597,324.000 206.024 C 324.000 206.451,323.820 206.800,323.600 206.800 C 323.380 206.800,323.200 207.160,323.200 207.600 C 323.200 208.040,323.020 208.400,322.800 208.400 C 322.580 208.400,322.400 208.672,322.400 209.005 C 322.400 209.338,322.232 209.923,322.026 210.305 C 321.821 210.687,321.417 211.585,321.129 212.300 C 320.840 213.015,320.469 213.600,320.302 213.600 C 320.136 213.600,320.000 214.061,320.000 214.624 C 320.000 215.204,319.827 215.540,319.600 215.400 C 319.380 215.264,319.200 215.513,319.200 215.953 C 319.200 216.393,319.020 216.864,318.800 217.000 C 318.580 217.136,318.400 217.687,318.400 218.224 C 318.400 218.761,318.220 219.200,318.000 219.200 C 317.780 219.200,317.600 219.560,317.600 220.000 C 317.600 220.440,317.420 220.800,317.200 220.800 C 316.980 220.800,316.800 221.160,316.800 221.600 C 316.800 222.040,316.609 222.400,316.376 222.400 C 316.143 222.400,316.037 222.536,316.140 222.703 C 316.243 222.869,315.534 224.624,314.564 226.603 C 313.595 228.581,312.801 230.515,312.801 230.900 C 312.800 231.285,312.620 231.600,312.400 231.600 C 312.180 231.600,312.000 231.960,312.000 232.400 C 312.000 232.840,311.790 233.200,311.533 233.200 C 311.277 233.200,311.187 233.321,311.335 233.468 C 311.482 233.616,311.359 234.111,311.062 234.568 C 310.765 235.026,310.294 236.092,310.017 236.939 C 309.739 237.785,309.263 238.955,308.959 239.539 C 308.654 240.122,308.404 240.915,308.402 241.300 C 308.401 241.685,308.220 242.000,308.000 242.000 C 307.780 242.000,307.600 242.461,307.600 243.024 C 307.600 243.604,307.427 243.940,307.200 243.800 C 306.980 243.664,306.800 243.888,306.800 244.297 C 306.800 245.209,305.911 247.193,305.500 247.197 C 305.335 247.199,305.200 247.560,305.200 248.000 C 305.200 248.440,305.009 248.800,304.776 248.800 C 304.543 248.800,304.444 248.948,304.556 249.129 C 304.668 249.309,304.498 249.960,304.180 250.574 C 303.861 251.189,303.600 251.941,303.600 252.246 C 303.600 252.551,303.420 252.800,303.200 252.800 C 302.980 252.800,302.800 253.034,302.800 253.320 C 302.800 254.056,301.859 255.993,301.500 255.997 C 301.335 255.999,301.200 256.525,301.200 257.167 C 301.200 257.808,301.065 258.393,300.900 258.467 C 300.468 258.659,298.800 261.972,298.800 262.638 C 298.800 262.947,298.620 263.200,298.400 263.200 C 298.180 263.200,298.000 263.650,298.000 264.200 C 298.000 264.750,297.820 265.200,297.600 265.200 C 297.380 265.200,297.200 265.560,297.200 266.000 C 297.200 266.440,297.020 266.800,296.800 266.800 C 296.580 266.800,296.400 267.250,296.400 267.800 C 296.400 268.350,296.220 268.800,296.000 268.800 C 295.780 268.800,295.600 269.250,295.600 269.800 C 295.600 270.350,295.420 270.800,295.200 270.800 C 294.980 270.800,294.800 271.053,294.800 271.362 C 294.800 271.671,294.460 272.616,294.045 273.462 C 293.629 274.308,292.977 275.810,292.596 276.800 C 291.579 279.439,290.244 282.180,289.900 282.333 C 289.476 282.522,289.525 284.000,289.956 284.000 C 290.152 284.000,291.642 282.695,293.267 281.100 C 298.849 275.621,303.536 272.137,309.738 268.856 C 313.395 266.921,315.200 265.358,315.200 264.125 C 315.200 263.642,315.380 263.136,315.600 263.000 C 315.820 262.864,316.000 262.403,316.000 261.976 C 316.000 261.549,316.180 261.200,316.400 261.200 C 316.620 261.200,316.800 260.840,316.800 260.400 C 316.800 259.960,316.980 259.600,317.200 259.600 C 317.420 259.600,317.600 259.150,317.600 258.600 C 317.600 258.050,317.780 257.600,318.000 257.600 C 318.220 257.600,318.400 257.139,318.400 256.576 C 318.400 255.996,318.573 255.660,318.800 255.800 C 319.028 255.941,319.200 255.596,319.200 255.000 C 319.200 254.404,319.372 254.059,319.600 254.200 C 319.827 254.340,320.000 254.004,320.000 253.424 C 320.000 252.861,320.180 252.400,320.400 252.400 C 320.620 252.400,320.800 252.051,320.800 251.624 C 320.800 251.197,320.980 250.736,321.200 250.600 C 321.420 250.464,321.600 250.003,321.600 249.576 C 321.600 249.149,321.780 248.800,322.000 248.800 C 322.220 248.800,322.400 248.476,322.400 248.080 C 322.400 247.684,322.544 247.189,322.720 246.980 C 322.896 246.771,323.459 245.520,323.971 244.200 C 324.909 241.780,326.560 237.989,327.235 236.705 C 327.436 236.323,327.600 235.738,327.600 235.405 C 327.600 235.072,327.780 234.800,328.000 234.800 C 328.220 234.800,328.400 234.440,328.400 234.000 C 328.400 233.560,328.580 233.200,328.800 233.200 C 329.020 233.200,329.200 232.851,329.200 232.424 C 329.200 231.997,329.380 231.536,329.600 231.400 C 329.820 231.264,330.000 230.713,330.000 230.176 C 330.000 229.639,330.180 229.200,330.400 229.200 C 330.620 229.200,330.800 228.840,330.800 228.400 C 330.800 227.960,330.980 227.600,331.200 227.600 C 331.420 227.600,331.600 227.240,331.600 226.800 C 331.600 226.360,331.741 226.000,331.913 226.000 C 332.085 226.000,332.465 225.190,332.757 224.200 C 333.049 223.210,333.448 222.400,333.644 222.400 C 333.840 222.400,334.000 221.939,334.000 221.376 C 334.000 220.796,334.173 220.460,334.400 220.600 C 334.620 220.736,334.800 220.564,334.800 220.218 C 334.800 219.872,334.980 219.232,335.200 218.795 C 335.420 218.358,335.780 217.642,336.000 217.205 C 336.220 216.768,336.400 216.138,336.400 215.805 C 336.400 215.472,336.580 215.200,336.800 215.200 C 337.020 215.200,337.200 214.840,337.200 214.400 C 337.200 213.867,337.467 213.600,338.000 213.600 C 338.533 213.600,338.800 213.867,338.800 214.400 C 338.800 214.840,338.980 215.200,339.200 215.200 C 339.420 215.200,339.600 215.560,339.600 216.000 C 339.600 216.440,339.780 216.800,340.000 216.800 C 340.220 216.800,340.400 217.261,340.400 217.824 C 340.400 218.404,340.573 218.740,340.800 218.600 C 341.033 218.456,341.200 218.863,341.200 219.576 C 341.200 220.249,341.380 220.800,341.600 220.800 C 341.820 220.800,342.000 221.069,342.000 221.397 C 342.000 222.259,343.329 225.200,343.718 225.200 C 343.899 225.200,343.956 225.348,343.844 225.529 C 343.732 225.709,343.902 226.360,344.220 226.974 C 344.539 227.589,344.800 228.341,344.800 228.646 C 344.800 228.951,344.935 229.201,345.100 229.203 C 345.477 229.207,346.396 231.151,346.413 231.980 C 346.420 232.321,346.684 232.942,347.000 233.359 C 347.316 233.776,347.480 234.271,347.364 234.459 C 347.248 234.647,347.299 234.800,347.479 234.800 C 347.658 234.800,348.042 235.385,348.333 236.100 C 348.623 236.815,349.207 238.092,349.630 238.938 C 350.054 239.784,350.400 240.729,350.400 241.038 C 350.400 241.347,350.580 241.600,350.800 241.600 C 351.020 241.600,351.200 241.960,351.200 242.400 C 351.200 242.840,351.380 243.200,351.600 243.200 C 351.820 243.200,352.000 243.639,352.000 244.176 C 352.000 244.713,352.180 245.264,352.400 245.400 C 352.620 245.536,352.800 245.997,352.800 246.424 C 352.800 246.851,352.980 247.200,353.200 247.200 C 353.420 247.200,353.600 247.560,353.600 248.000 C 353.600 248.440,353.780 248.800,354.000 248.800 C 354.220 248.800,354.400 249.160,354.400 249.600 C 354.400 250.040,354.580 250.400,354.800 250.400 C 355.020 250.400,355.200 250.839,355.200 251.376 C 355.200 251.913,355.380 252.464,355.600 252.600 C 355.820 252.736,356.000 253.207,356.000 253.647 C 356.000 254.087,356.180 254.336,356.400 254.200 C 356.620 254.064,356.800 254.236,356.800 254.582 C 356.800 254.928,356.980 255.568,357.200 256.005 C 357.420 256.442,357.780 257.158,358.000 257.595 C 358.220 258.032,358.400 258.662,358.400 258.995 C 358.400 259.328,358.580 259.600,358.800 259.600 C 359.020 259.600,359.176 259.735,359.146 259.900 C 359.028 260.566,359.723 262.800,360.050 262.800 C 360.243 262.800,360.400 263.034,360.400 263.320 C 360.400 264.239,361.384 265.994,361.900 265.997 C 362.175 265.999,362.400 266.172,362.400 266.381 C 362.400 266.591,363.075 267.077,363.900 267.460 C 364.725 267.844,365.490 268.268,365.600 268.401 C 365.710 268.535,367.150 269.416,368.800 270.359 C 373.606 273.106,376.713 275.485,381.235 279.882 C 385.563 284.090,386.400 284.624,386.400 283.176 C 386.400 282.723,386.220 282.464,386.000 282.600 C 385.773 282.740,385.600 282.404,385.600 281.824 C 385.600 281.261,385.420 280.800,385.200 280.800 C 384.980 280.800,384.800 280.440,384.800 280.000 C 384.800 279.560,384.620 279.200,384.400 279.200 C 384.180 279.200,384.000 278.750,384.000 278.200 C 384.000 277.650,383.820 277.200,383.600 277.200 C 383.380 277.200,383.200 276.840,383.200 276.400 C 383.200 275.960,383.020 275.600,382.800 275.600 C 382.580 275.600,382.400 275.240,382.400 274.800 C 382.400 274.360,382.220 274.000,382.000 274.000 C 381.780 274.000,381.600 273.561,381.600 273.024 C 381.600 272.487,381.420 271.936,381.200 271.800 C 380.980 271.664,380.800 271.203,380.800 270.776 C 380.800 270.349,380.620 270.000,380.400 270.000 C 380.180 270.000,380.000 269.640,380.000 269.200 C 380.000 268.760,379.820 268.400,379.600 268.400 C 379.380 268.400,379.200 268.040,379.200 267.600 C 379.200 267.160,379.020 266.800,378.800 266.800 C 378.580 266.800,378.400 266.361,378.400 265.824 C 378.400 265.287,378.220 264.736,378.000 264.600 C 377.780 264.464,377.600 264.003,377.600 263.576 C 377.600 263.149,377.465 262.799,377.300 262.797 C 376.935 262.793,376.000 260.851,376.000 260.097 C 376.000 259.798,375.843 259.650,375.651 259.768 C 375.459 259.887,375.204 259.380,375.084 258.641 C 374.964 257.903,374.491 256.523,374.033 255.574 C 373.575 254.626,373.200 253.614,373.200 253.325 C 373.200 253.036,373.020 252.800,372.800 252.800 C 372.580 252.800,372.400 252.350,372.400 251.800 C 372.400 251.250,372.220 250.800,372.000 250.800 C 371.780 250.800,371.600 250.350,371.600 249.800 C 371.600 249.250,371.420 248.800,371.200 248.800 C 370.980 248.800,370.800 248.440,370.800 248.000 C 370.800 247.560,370.620 247.200,370.400 247.200 C 370.180 247.200,370.000 246.851,370.000 246.424 C 370.000 245.997,369.820 245.536,369.600 245.400 C 369.380 245.264,369.200 244.803,369.200 244.376 C 369.200 243.949,369.020 243.600,368.800 243.600 C 368.580 243.600,368.400 243.240,368.400 242.800 C 368.400 242.360,368.220 242.000,368.000 242.000 C 367.780 242.000,367.600 241.640,367.600 241.200 C 367.600 240.760,367.420 240.400,367.200 240.400 C 366.980 240.400,366.800 239.950,366.800 239.400 C 366.800 238.850,366.620 238.400,366.400 238.400 C 366.180 238.400,366.000 237.950,366.000 237.400 C 366.000 236.850,365.820 236.400,365.600 236.400 C 365.380 236.400,365.200 236.040,365.200 235.600 C 365.200 235.160,365.020 234.800,364.800 234.800 C 364.580 234.800,364.400 234.528,364.400 234.195 C 364.400 233.862,364.192 233.187,363.938 232.695 C 362.964 230.810,362.800 230.392,362.800 229.782 C 362.800 229.436,362.620 229.264,362.400 229.400 C 362.180 229.536,362.000 229.364,362.000 229.018 C 362.000 228.672,361.820 228.032,361.600 227.595 C 361.380 227.158,361.020 226.442,360.800 226.005 C 360.580 225.568,360.400 224.938,360.400 224.605 C 360.400 224.272,360.220 224.000,360.000 224.000 C 359.780 224.000,359.600 223.640,359.600 223.200 C 359.600 222.760,359.420 222.400,359.200 222.400 C 358.980 222.400,358.800 222.158,358.800 221.861 C 358.800 221.565,358.521 220.765,358.181 220.082 C 357.841 219.400,357.489 218.463,357.400 218.000 C 357.311 217.537,356.959 216.600,356.619 215.918 C 356.279 215.235,356.000 214.435,356.000 214.139 C 356.000 213.842,355.840 213.600,355.644 213.600 C 355.448 213.600,355.049 212.790,354.757 211.800 C 354.465 210.810,354.085 210.000,353.913 210.000 C 353.741 210.000,353.600 209.640,353.600 209.200 C 353.600 208.760,353.420 208.400,353.200 208.400 C 352.980 208.400,352.800 208.166,352.800 207.880 C 352.800 207.050,351.838 205.207,351.400 205.197 C 351.180 205.192,351.270 205.013,351.600 204.800 C 352.000 204.542,352.033 204.410,351.700 204.406 C 351.425 204.403,351.200 204.040,351.200 203.600 C 351.200 203.160,351.020 202.800,350.800 202.800 C 350.580 202.800,350.400 202.440,350.400 202.000 C 350.400 201.560,350.220 201.200,350.000 201.200 C 349.780 201.200,349.600 200.855,349.600 200.433 C 349.600 200.012,349.422 199.607,349.203 199.533 C 348.985 199.460,348.766 198.905,348.716 198.300 C 348.666 197.695,348.485 197.200,348.313 197.200 C 348.141 197.200,348.000 196.840,348.000 196.400 C 348.000 195.960,347.820 195.600,347.600 195.600 C 347.380 195.600,347.200 195.255,347.200 194.833 C 347.200 194.412,347.012 194.004,346.782 193.927 C 346.552 193.851,346.334 193.386,346.297 192.894 C 346.260 192.402,346.088 192.000,345.915 192.000 C 345.742 192.000,345.600 173.100,345.600 150.000 C 345.600 108.692,345.587 108.000,344.824 108.000 C 344.397 108.000,343.936 108.180,343.800 108.400 " stroke="none" fill="#9ccbd3" fill-rule="evenodd"></path></g></svg>