<?xml version="1.0" encoding="UTF-8" standalone="no"?>
<!-- Created with Inkscape (http://www.inkscape.org/) -->
<svg
   xmlns:dc="http://purl.org/dc/elements/1.1/"
   xmlns:cc="http://creativecommons.org/ns#"
   xmlns:rdf="http://www.w3.org/1999/02/22-rdf-syntax-ns#"
   xmlns:svg="http://www.w3.org/2000/svg"
   xmlns="http://www.w3.org/2000/svg"
   xmlns:xlink="http://www.w3.org/1999/xlink"
   xmlns:sodipodi="http://sodipodi.sourceforge.net/DTD/sodipodi-0.dtd"
   xmlns:inkscape="http://www.inkscape.org/namespaces/inkscape"
   width="740"
   height="530"
   id="svg2"
   sodipodi:version="0.32"
   inkscape:version="0.46"
   version="1.0"
   sodipodi:docbase="/home/rursus/doc/bilder/icons"
   sodipodi:docname="saturne.svg"
   inkscape:output_extension="org.inkscape.output.svg.inkscape">
  <defs
     id="defs4">
    <linearGradient
       inkscape:collect="always"
       id="linearGradient3183">
      <stop
         style="stop-color:#857b71;stop-opacity:1;"
         offset="0"
         id="stop3185" />
      <stop
         style="stop-color:#857b71;stop-opacity:0;"
         offset="1"
         id="stop3187" />
    </linearGradient>
    <inkscape:perspective
       sodipodi:type="inkscape:persp3d"
       inkscape:vp_x="0 : 370 : 1"
       inkscape:vp_y="0 : 1000 : 0"
       inkscape:vp_z="820 : 370 : 1"
       inkscape:persp3d-origin="410 : 246.66667 : 1"
       id="perspective28" />
    <linearGradient
       id="linearGradient2867">
      <stop
         style="stop-color:#353432;stop-opacity:1"
         offset="0"
         id="stop2869" />
      <stop
         id="stop3181"
         offset="0.03552471"
         style="stop-color:#3b3937;stop-opacity:1;" />
      <stop
         id="stop3179"
         offset="0.105526"
         style="stop-color:#928477;stop-opacity:1" />
      <stop
         id="stop3177"
         offset="0.23039591"
         style="stop-color:#beab9a;stop-opacity:1" />
      <stop
         style="stop-color:#ac9078;stop-opacity:1"
         offset="0.48861489"
         id="stop3193" />
      <stop
         style="stop-color:#c8aa91;stop-opacity:1"
         offset="0.69568032"
         id="stop3191" />
      <stop
         id="stop3208"
         offset="0.92769873"
         style="stop-color:#a9998a;stop-opacity:1" />
      <stop
         style="stop-color:#393939;stop-opacity:1"
         offset="1"
         id="stop2871" />
    </linearGradient>
    <linearGradient
       id="linearGradient2790">
      <stop
         id="stop2792"
         offset="0"
         style="stop-color:white;stop-opacity:1;" />
      <stop
         id="stop2794"
         offset="1"
         style="stop-color:#b9bbff;stop-opacity:1;" />
    </linearGradient>
    <radialGradient
       inkscape:collect="always"
       xlink:href="#linearGradient2790"
       id="radialGradient2905"
       gradientUnits="userSpaceOnUse"
       gradientTransform="matrix(1.13691,1.364962e-2,-8.25112e-3,1.149967,-240.7271,181.3224)"
       cx="450.87128"
       cy="433.56094"
       fx="450.87128"
       fy="433.56094"
       r="171.40106" />
    <radialGradient
       inkscape:collect="always"
       xlink:href="#linearGradient2790"
       id="radialGradient2937"
       gradientUnits="userSpaceOnUse"
       gradientTransform="matrix(1.13691,1.364962e-2,-8.25112e-3,1.149967,-246.3964,33.0252)"
       cx="450.87128"
       cy="433.56094"
       fx="450.87128"
       fy="433.56094"
       r="171.40106" />
    <linearGradient
       inkscape:collect="always"
       xlink:href="#linearGradient2867"
       id="linearGradient3175"
       x1="354.50192"
       y1="572.9848"
       x2="334.11694"
       y2="977.53717"
       gradientUnits="userSpaceOnUse" />
    <linearGradient
       inkscape:collect="always"
       xlink:href="#linearGradient3183"
       id="linearGradient3189"
       x1="-190.79005"
       y1="1052.0304"
       x2="1021.9756"
       y2="280.10419"
       gradientUnits="userSpaceOnUse" />
    <inkscape:perspective
       id="perspective3202"
       inkscape:persp3d-origin="372.04724 : 350.78739 : 1"
       inkscape:vp_z="744.09448 : 526.18109 : 1"
       inkscape:vp_y="0 : 1000 : 0"
       inkscape:vp_x="0 : 526.18109 : 1"
       sodipodi:type="inkscape:persp3d" />
    <linearGradient
       inkscape:collect="always"
       xlink:href="#linearGradient2867"
       id="linearGradient3215"
       gradientUnits="userSpaceOnUse"
       x1="354.50192"
       y1="572.9848"
       x2="334.11694"
       y2="977.53717" />
    <linearGradient
       inkscape:collect="always"
       xlink:href="#linearGradient3183"
       id="linearGradient3217"
       gradientUnits="userSpaceOnUse"
       x1="-190.79005"
       y1="1052.0304"
       x2="1021.9756"
       y2="280.10419" />
  </defs>
  <sodipodi:namedview
     id="base"
     pagecolor="#ffffff"
     bordercolor="#666666"
     borderopacity="1.0"
     gridtolerance="10000"
     guidetolerance="10"
     objecttolerance="10"
     inkscape:pageopacity="0.0"
     inkscape:pageshadow="2"
     inkscape:zoom="0.08890098"
     inkscape:cx="483.76926"
     inkscape:cy="314.98958"
     inkscape:document-units="px"
     inkscape:current-layer="layer1"
     height="740px"
     width="820px"
     inkscape:window-width="1400"
     inkscape:window-height="1000"
     inkscape:window-x="-8"
     inkscape:window-y="-8"
     showguides="true"
     inkscape:guide-bbox="true"
     showgrid="false" />
  <metadata
     id="metadata7">
    <rdf:RDF>
      <cc:Work
         rdf:about="">
        <dc:format>image/svg+xml</dc:format>
        <dc:type
           rdf:resource="http://purl.org/dc/dcmitype/StillImage" />
      </cc:Work>
    </rdf:RDF>
  </metadata>
  <g
     inkscape:label="Layer 1"
     inkscape:groupmode="layer"
     id="layer1"
     transform="translate(29.53108,-331.0816)">
    <g
       id="g3210"
       transform="matrix(0.9963382,0,0,0.999314,-48.385698,-94.117955)">
      <path
         id="path2796"
         d="M 209.16715,727.55731 C 251.44436,706.63863 302.12627,677.10863 354.94856,641.75404 C 401.60878,610.52379 443.40874,579.10546 476.98098,550.75055 C 478.43787,555.22176 479.70526,559.70606 480.72393,564.26454 C 446.81041,590.5894 408.47859,618.25979 367.16825,645.90928 C 314.95591,680.85562 264.50151,711.41335 219.54834,735.87617 C 215.97002,733.26641 212.5187,730.49991 209.16715,727.55731 z M 228.68621,742.0565 C 272.95079,717.66938 321.53414,688.10989 371.54381,654.63782 C 411.6623,627.78604 449.07234,600.82601 482.67613,574.87829 C 483.67744,581.60516 484.21345,588.39016 484.30804,595.18256 C 452.29261,619.6165 417.42292,644.61243 380.35074,669.42529 C 334.22459,700.29807 289.08485,728.00083 246.8703,751.69584 C 240.60178,748.89317 234.52844,745.68848 228.68621,742.0565 z"
         style="fill:#000001;fill-opacity:0.38655461;fill-rule:evenodd;stroke:none;stroke-width:11.37355423;stroke-linecap:round;stroke-linejoin:round;stroke-miterlimit:4;stroke-dasharray:none;stroke-dashoffset:0;stroke-opacity:1" />
      <path
         transform="matrix(-0.831034,0.556221,0.429987,0.642431,315.97191,8.680145)"
         d="M 497.14284,776.64789 A 165.71428,201.42857 0 1 1 165.71428,776.64789 A 165.71428,201.42857 0 1 1 497.14284,776.64789 z"
         sodipodi:ry="201.42857"
         sodipodi:rx="165.71428"
         sodipodi:cy="776.64789"
         sodipodi:cx="331.42856"
         id="path1872"
         style="opacity:1;fill:url(#linearGradient3215);fill-opacity:1;fill-rule:evenodd;stroke:#000000;stroke-width:17.06033325;stroke-linecap:round;stroke-linejoin:round;stroke-miterlimit:4;stroke-dasharray:none;stroke-dashoffset:0;stroke-opacity:1"
         sodipodi:type="arc" />
      <path
         id="path2761"
         d="M 474.91694,547.61557 C 607.05219,472.77888 711.68433,436.33909 729.8127,463.42416 C 753.49814,498.81192 620.60631,629.3233 433.18191,754.7687 C 245.75752,880.21404 74.439516,953.31402 50.754036,917.92625 C 33.840836,892.65674 96.790736,818.8681 202.39529,733.06347 L 204.85706,742.6969 C 117.19442,814.6374 65.412166,874.37373 78.697076,894.22234 C 98.374726,923.62209 253.24612,854.51983 424.37499,739.98123 C 595.50385,625.44261 718.42995,508.61174 698.75232,479.21195 C 684.27591,457.58316 596.60347,489.29953 483.14359,553.16487 L 474.91694,547.61557 z M 488.68877,556.89896 C 589.94606,500.16557 666.83397,471.75043 679.14978,490.15114 C 696.4141,515.94527 580.31141,623.95399 419.99942,731.25269 C 259.68744,838.5514 115.57328,904.70903 98.308956,878.91486 C 87.219296,862.3461 131.21913,811.82792 206.55073,749.38488 L 209.43152,760.65564 C 166.55177,799.74562 143.43518,830.37565 151.25014,842.05175 C 165.72458,863.67759 280.64571,812.18977 407.77973,727.09745 C 534.91376,642.00509 626.35115,555.37474 611.8767,533.74888 C 603.32034,520.96507 559.67856,533.76117 499.1456,563.92626 L 488.68877,556.89896 z"
         style="fill:url(#linearGradient3217);fill-opacity:0.75294118;fill-rule:evenodd;stroke:#000000;stroke-width:8;stroke-linecap:round;stroke-linejoin:round;stroke-miterlimit:4;stroke-dasharray:none;stroke-dashoffset:0;stroke-opacity:1" />
    </g>
  </g>
</svg>
